<?xml version="1.0" encoding="utf-8"?>
<!-- Generator: Adobe Illustrator 16.0.4, SVG Export Plug-In . SVG Version: 6.00 Build 0)  -->
<!DOCTYPE svg PUBLIC "-//W3C//DTD SVG 1.1//EN" "http://www.w3.org/Graphics/SVG/1.1/DTD/svg11.dtd">
<svg version="1.1" id="Layer_1" xmlns="http://www.w3.org/2000/svg" xmlns:xlink="http://www.w3.org/1999/xlink" x="0px" y="0px"
	 width="300px" height="100px" viewBox="0 0 300 100" enable-background="new 0 0 300 100" xml:space="preserve">
<g>
	<path fill="#FFFFFF" d="M24.22,73.612c4.858,1.083,6.666,4.076,6.666,8.064c0,6.329-6.481,8.285-13.266,8.285
		c-5.79,0-12.37-2.924-12.11-8.688h8.14c0.204,1.556,1.728,2.966,4.986,2.966c1.665,0,4.298-1.447,4.298-3.315
		c0-2.43-0.787-4.113-8.441-4.093v-5.188c5.397-0.021,7.957-1.784,7.957-4.214c0-1.868-1.666-3.315-3.331-3.315
		c-3.259,0-4.622,1.41-4.825,2.966H6.476c-0.26-5.765,5.837-8.447,11.627-8.447c6.784,0,12.541,1.715,12.541,8.043
		C30.644,70.665,27.144,72.761,24.22,73.612z"/>
</g>
<g>
	<path fill="#FFFFFF" d="M118.89,76.995c0-3.277-0.638-4.597-2.979-4.597c-2.595,0-3.106,2.256-3.106,4.937v11.506h-8.852V76.995
		c0-3.277-0.638-4.597-2.979-4.597c-2.596,0-3.106,2.256-3.106,4.937v11.506H89.5V67.509h8.128v3.319
		c1.106-1.702,3.872-3.958,7.064-3.958c4,0,5.891,1.703,6.955,4.086c1.914-2.681,4.748-4.086,8.024-4.086
		c4.967,0,7.053,2.131,7.762,5.843l-0.036-69.712l-94.462-0.08l0.038,65.838c1.755-7.165,7.531-11.368,14.658-11.368
		c9.362,0,14.32,5.254,14.76,10.577h-9.049c-0.257-1.777-1.386-4.538-5.286-4.538c-3.532,0-6.466,1.919-6.466,9.707
		c0,7.788,2.934,10.387,6.466,10.387c3.899,0,5.028-2.76,5.286-4.538h9.049c-0.44,5.323-5.398,10.577-14.76,10.577
		c-7.147,0-12.937-4.308-14.673-11.509l-0.022,19.41h94.462v-8.624h-8.508V76.995L118.89,76.995z M75.403,89.638
		c-6.824,0-12.105-3.736-12.105-11.008c0-7.394,4.875-11.496,12.065-11.496c7.516,0,12.146,4.427,12.146,11.049
		C87.509,85.982,82.228,89.638,75.403,89.638z"/>
	<path fill="#FFFFFF" d="M75.508,72.531c-3.506,0-4.542,3.114-4.542,5.63c0,4.223,1.827,6.057,4.443,6.057
		c2.765,0,4.444-1.833,4.444-6.057C79.853,74.877,78.174,72.403,75.508,72.531z"/>
</g>
<path fill="#FFFFFF" d="M134.237,62.996c-1.16,0-2.096,0.936-2.096,2.084c0,1.161,0.936,2.096,2.096,2.096
	c1.154,0,2.085-0.936,2.085-2.096C136.322,63.932,135.392,62.996,134.237,62.996z M134.237,66.925c-1.018,0-1.839-0.821-1.839-1.844
	c0-1.012,0.821-1.833,1.839-1.833c1.012,0,1.833,0.82,1.833,1.833C136.07,66.104,135.25,66.925,134.237,66.925z"/>
<path fill="#FFFFFF" d="M135.311,64.534c0-0.197-0.087-0.405-0.263-0.503c-0.175-0.104-0.372-0.115-0.568-0.115h-1.018v2.337h0.284
	v-1.079h0.525l0.668,1.079h0.339l-0.706-1.079C134.988,65.163,135.311,64.993,135.311,64.534z M134.183,64.947h-0.438v-0.827h0.668
	c0.29,0,0.607,0.043,0.607,0.405C135.021,65.001,134.511,64.947,134.183,64.947z"/>
</svg>
