<?xml version="1.0" encoding="utf-8"?>
<!-- Generator: Adobe Illustrator 16.0.4, SVG Export Plug-In . SVG Version: 6.00 Build 0)  -->
<!DOCTYPE svg PUBLIC "-//W3C//DTD SVG 1.1//EN" "http://www.w3.org/Graphics/SVG/1.1/DTD/svg11.dtd">
<svg version="1.1" id="Layer_1" xmlns="http://www.w3.org/2000/svg" xmlns:xlink="http://www.w3.org/1999/xlink" x="0px" y="0px"
	 width="300px" height="100px" viewBox="0 0 300 100" enable-background="new 0 0 300 100" xml:space="preserve">
<g>
	<g>
		<path fill="#FFFFFF" d="M17.161,26.654L4.323,63.864h10.089l1.94-6.646h14.441l1.886,6.646h10.11l-12.888-37.21H17.161z
			 M18.54,49.987l3.748-12.293c0.217-0.759,0.433-1.558,0.649-2.388c0.21-0.831,0.426-1.703,0.647-2.623
			c0.324,1.306,0.583,2.375,0.789,3.208c0.205,0.83,0.367,1.434,0.486,1.803l3.791,12.293H18.54z"/>
		<path fill="#FFFFFF" d="M55.478,37.358c-4.138,0-7.557,1.322-10.257,3.963c-2.707,2.645-4.052,5.967-4.052,9.965
			c0,4.07,1.345,7.341,4.046,9.824c2.701,2.482,6.288,3.723,10.754,3.723c2.992,0,5.524-0.529,7.588-1.598
			c2.063-1.06,3.5-2.57,4.316-4.525l-6.827-2.844c-0.492,1.051-1.199,1.849-2.128,2.381c-0.94,0.537-2.085,0.802-3.446,0.802
			c-1.82,0-3.219-0.539-4.214-1.632c-0.987-1.084-1.495-2.633-1.512-4.635h19.477v-0.434c0-4.648-1.232-8.311-3.685-10.986
			C63.082,38.69,59.729,37.358,55.478,37.358z M49.947,47.672c0.286-1.606,0.863-2.81,1.729-3.614
			c0.864-0.804,2.029-1.207,3.494-1.207c1.356,0,2.502,0.441,3.435,1.319c0.935,0.88,1.486,2.047,1.653,3.502H49.947z"/>
		<path fill="#FFFFFF" d="M105.118,35.235c1.395,0,2.583-0.488,3.561-1.479c0.977-0.979,1.469-2.176,1.469-3.585
			c0-1.406-0.485-2.59-1.443-3.54c-0.961-0.949-2.159-1.426-3.586-1.426c-1.377,0-2.553,0.481-3.531,1.452
			c-0.978,0.969-1.47,2.137-1.47,3.512c0,1.374,0.493,2.561,1.481,3.567C102.585,34.735,103.758,35.235,105.118,35.235z"/>
		<rect x="100.598" y="38.222" fill="#FFFFFF" width="9.065" height="25.643"/>
		<path fill="#FFFFFF" d="M125.061,57.831c-0.595,0.365-1.465,0.543-2.61,0.543c-1.626,0-3.229-0.307-4.828-0.922
			c-1.594-0.615-3.057-1.5-4.392-2.646l-1.832,6.899c1.695,1.051,3.506,1.834,5.439,2.35c1.929,0.518,4.025,0.777,6.276,0.777
			c3.327,0,5.995-0.812,8.009-2.426c2.015-1.613,3.024-3.738,3.024-6.362c0-2.063-0.61-3.702-1.836-4.912
			c-1.22-1.212-3.392-2.265-6.514-3.163c-0.275-0.066-0.687-0.178-1.237-0.334c-2.414-0.629-3.624-1.398-3.624-2.316
			c0-0.617,0.27-1.08,0.794-1.406c0.528-0.319,1.312-0.479,2.355-0.479c1.242,0,2.49,0.208,3.732,0.638
			c1.248,0.431,2.474,1.053,3.683,1.866l1.875-6.239c-1.783-0.799-3.527-1.39-5.24-1.768c-1.706-0.383-3.386-0.572-5.034-0.572
			c-3.213,0-5.757,0.748-7.637,2.239c-1.879,1.491-2.813,3.485-2.813,5.978c0,1.935,0.617,3.508,1.843,4.719
			c1.232,1.215,3.197,2.193,5.913,2.941c0.481,0.133,1.119,0.295,1.913,0.479c2.42,0.555,3.634,1.401,3.634,2.53
			C125.956,56.938,125.654,57.465,125.061,57.831z"/>
		<path fill="#FFFFFF" d="M90.547,42.396c-0.979-1.631-2.14-2.834-3.484-3.601c-1.351-0.766-2.938-1.15-4.779-1.15
			c-3.496,0-6.271,1.17-8.333,3.508c-2.065,2.344-3.09,5.491-3.09,9.453c0,3.928,0.983,7.067,2.954,9.426
			c1.978,2.354,4.591,3.53,7.854,3.53c1.955,0,3.645-0.38,5.061-1.134c1.419-0.753,2.588-1.902,3.505-3.45v2.244
			c0,2.922-0.356,4.84-1.069,5.752c-0.708,0.91-1.999,1.363-3.874,1.363c-1.187,0-2.148-0.224-2.871-0.667
			c-0.724-0.451-1.151-1.072-1.28-1.864h-9.053c0.137,2.629,1.291,4.662,3.479,6.097c2.182,1.437,5.203,2.154,9.052,2.154
			c4.76,0,8.282-0.891,10.556-2.681c2.279-1.791,3.413-4.56,3.413-8.3V38.442h-8.037L90.547,42.396L90.547,42.396z M89.402,55.192
			c-1.027,1.092-2.425,1.639-4.197,1.639c-1.804,0-3.225-0.547-4.256-1.639c-1.033-1.095-1.551-2.587-1.551-4.479
			c0-1.909,0.518-3.402,1.551-4.487c1.031-1.09,2.452-1.629,4.256-1.629c1.794,0,3.192,0.539,4.208,1.629
			c1.015,1.085,1.522,2.578,1.522,4.487C90.935,52.605,90.428,54.098,89.402,55.192z"/>
	</g>
	<g>
		<path fill="#FFFFFF" d="M177.262,63.817h-4.605l-3.508-23.888l-11.74,24.961L145.786,39.93l-3.509,23.888h-4.653l6.204-37.921
			l13.674,29.282L171.2,25.896L177.262,63.817z"/>
		<path fill="#FFFFFF" d="M202.625,52.292c0,3.436-1.172,6.348-3.52,8.732c-2.347,2.387-5.229,3.58-8.651,3.58
			c-3.405,0-6.269-1.188-8.591-3.566c-2.323-2.379-3.484-5.295-3.484-8.746c0-3.452,1.153-6.336,3.46-8.651
			c2.308-2.315,5.179-3.472,8.615-3.472c3.453,0,6.344,1.164,8.673,3.494C201.459,45.995,202.625,48.872,202.625,52.292z
			 M198.232,52.292c0-2.309-0.733-4.203-2.207-5.691c-1.469-1.488-3.312-2.232-5.523-2.232c-2.244,0-4.092,0.742-5.548,2.221
			c-1.455,1.479-2.185,3.382-2.185,5.703c0,2.354,0.737,4.296,2.209,5.822s3.312,2.291,5.523,2.291c2.242,0,4.094-0.765,5.548-2.291
			C197.506,56.586,198.232,54.645,198.232,52.292z"/>
		<path fill="#FFFFFF" d="M228.178,52.243c0,3.66-0.98,6.636-2.947,8.924c-1.963,2.293-4.528,3.438-7.694,3.438
			c-1.813,0-3.368-0.366-4.665-1.098c-1.296-0.731-2.316-1.822-3.068-3.269v3.578h-4.391v-40.33h4.391v20.737
			c0.846-1.351,1.898-2.366,3.162-3.043c1.268-0.674,2.758-1.013,4.475-1.013c3.215,0,5.809,1.113,7.781,3.34
			C227.191,45.737,228.178,48.647,228.178,52.243z M223.787,52.292c0-2.434-0.635-4.363-1.909-5.788
			c-1.272-1.423-2.983-2.136-5.132-2.136s-3.842,0.689-5.083,2.064c-1.24,1.377-1.861,3.28-1.861,5.716
			c0,2.449,0.662,4.438,1.981,5.966c1.32,1.525,3.023,2.291,5.105,2.291c2.07,0,3.735-0.74,5-2.22
			C223.154,56.706,223.787,54.741,223.787,52.292z"/>
		<path fill="#FFFFFF" d="M235.793,31.696c0,0.812-0.277,1.498-0.835,2.053c-0.556,0.558-1.241,0.836-2.052,0.836
			c-0.812,0-1.494-0.278-2.051-0.836c-0.559-0.555-0.836-1.239-0.836-2.053c0-0.795,0.277-1.471,0.836-2.027
			c0.558-0.557,1.238-0.836,2.051-0.836c0.811,0,1.496,0.279,2.052,0.836C235.516,30.226,235.793,30.901,235.793,31.696z
			 M235.1,63.817h-4.391V40.956h4.391V63.817z"/>
		<path fill="#FFFFFF" d="M244.184,63.817h-4.391v-40.33h4.391V63.817z"/>
		<path fill="#FFFFFF" d="M254.173,31.696c0,0.812-0.276,1.498-0.835,2.053c-0.556,0.558-1.242,0.836-2.052,0.836
			c-0.812,0-1.494-0.278-2.054-0.836c-0.556-0.555-0.834-1.239-0.834-2.053c0-0.795,0.278-1.471,0.834-2.027
			c0.561-0.557,1.242-0.836,2.054-0.836s1.497,0.279,2.052,0.836C253.896,30.226,254.173,30.901,254.173,31.696z M253.48,63.817
			h-4.391V40.956h4.391V63.817z"/>
		<path fill="#FFFFFF" d="M267.277,44.844h-3.916v18.974h-4.414V44.844h-2.436v-3.89h2.436v-9.141h4.414v9.141h3.916V44.844z"/>
		<path fill="#FFFFFF" d="M290.865,40.956l-14.604,35.557h-4.846l5.824-13.675l-9.643-21.884h4.797l7.088,16.849l6.539-16.849h4.844
			V40.956z"/>
	</g>
</g>
</svg>
