<?xml version="1.0" encoding="utf-8"?>
<!-- Generator: Adobe Illustrator 16.0.4, SVG Export Plug-In . SVG Version: 6.00 Build 0)  -->
<!DOCTYPE svg PUBLIC "-//W3C//DTD SVG 1.1//EN" "http://www.w3.org/Graphics/SVG/1.1/DTD/svg11.dtd">
<svg version="1.1" id="Layer_1" xmlns="http://www.w3.org/2000/svg" xmlns:xlink="http://www.w3.org/1999/xlink" x="0px" y="0px"
	 width="300px" height="100px" viewBox="0 0 300 100" enable-background="new 0 0 300 100" xml:space="preserve">
<path fill="#FFFFFF" d="M15.996,20.425c-0.615,0.31-1.869,0.682-3.724,0.682c-5.142,0-8.095-3.538-8.095-8.051
	c0-5.37,3.765-8.211,8.435-8.211c1.813,0,2.771,0.346,3.384,0.672l-0.569,3.214c-0.688-0.304-1.414-0.582-2.672-0.582
	c-2.225,0-4.591,1.324-4.591,4.845c0,3.156,1.885,4.82,4.61,4.82c1.073,0,1.807-0.205,2.653-0.594L15.996,20.425z"/>
<path fill="#FFFFFF" d="M33.492,16.039c0.131,1.474,1.349,2.253,3.232,2.269c1.137,0.011,2.456-0.316,3.335-0.838l0.525,2.714
	c-1.321,0.66-2.835,0.923-4.373,0.923c-4.148,0-6.372-2.499-6.372-6.318c0-3.696,2.391-6.079,5.975-6.079
	c3.688,0,5.342,2.718,5.342,6.122c0,0.356-0.042,0.943-0.083,1.208L33.492,16.039 M37.68,13.563c0-0.854-0.418-2.347-2.029-2.347
	c-1.417,0-2.081,1.218-2.182,2.347H37.68z"/>
<polygon fill="#FFFFFF" points="45.252,20.621 41.402,9.192 45.248,9.192 47.339,17.276 47.408,17.276 49.5,9.192 53.344,9.192 
	49.496,20.621 "/>
<path fill="#FFFFFF" d="M54.333,12.951c0-1.682-0.054-2.775-0.124-3.756h3.282l0.099,2.121h0.087
	c0.576-1.679,1.677-2.32,2.811-2.382c0.539-0.032,0.828,0.007,1.165,0.07v3.344c-0.319-0.063-0.953-0.139-1.399-0.097
	c-1.341,0.123-2.153,1.096-2.379,2.223c-0.047,0.228-0.069,0.493-0.069,0.792v5.355h-3.473V12.951z"/>
<path fill="#FFFFFF" d="M73.894,14.907c0,3.741-2.255,6.2-5.912,6.2s-5.915-2.459-5.915-6.2c0-3.748,2.259-6.2,5.915-6.2
	C71.639,8.708,73.894,11.16,73.894,14.907 M70.284,14.907c0-1.861-0.641-3.479-2.301-3.479c-1.665,0-2.3,1.617-2.3,3.479
	c0,1.862,0.635,3.478,2.3,3.478C69.643,18.384,70.284,16.769,70.284,14.907"/>
<path fill="#FFFFFF" d="M75.445,12.837c0-1.425-0.053-2.645-0.127-3.643h3.284l0.074,1.596h0.072c0.453-0.741,1.657-1.96,3.533-1.96
	c2.3,0,3.797,1.563,3.797,4.93v6.861h-3.481v-6.339c0-1.468-0.504-2.472-1.763-2.472c-0.967,0-1.566,0.678-1.79,1.33
	c-0.084,0.237-0.116,0.563-0.116,0.891v6.59h-3.481L75.445,12.837L75.445,12.837z"/>
<path fill="#FFFFFF" d="M24.534,8.828c-1.386,0-2.725,0.626-3.405,1.636h-0.044V4.9l-3.483,1.207v14.514h3.483v-6.784
	c0-0.977,0.637-2.029,1.857-2.029c1.305,0,1.811,1.029,1.811,2.521v6.293h3.487v-6.773C28.24,10.395,26.755,8.828,24.534,8.828"/>
<polygon fill="#FFFFFF" points="4.305,50.913 45.196,37.287 4.305,23.66 "/>
<polygon fill="#FFFFFF" points="45.196,37.287 4.315,50.913 45.196,64.543 86.073,50.913 86.073,23.664 "/>
<polygon fill="#FFFFFF" points="4.305,55.329 4.308,82.592 45.192,68.959 "/>
<polygon fill="#FFFFFF" points="45.185,68.954 4.313,82.588 45.192,96.217 86.075,82.588 86.075,55.329 "/>
</svg>
