<?xml version="1.0" encoding="utf-8"?>
<!-- Generator: Adobe Illustrator 16.0.4, SVG Export Plug-In . SVG Version: 6.00 Build 0)  -->
<!DOCTYPE svg PUBLIC "-//W3C//DTD SVG 1.1//EN" "http://www.w3.org/Graphics/SVG/1.1/DTD/svg11.dtd">
<svg version="1.1" xmlns="http://www.w3.org/2000/svg" xmlns:xlink="http://www.w3.org/1999/xlink" x="0px" y="0px" width="36px"
	 height="36px" viewBox="0 0 36 36" enable-background="new 0 0 36 36" xml:space="preserve">
<g id="Layer_1">
	<circle fill="#FF8000" cx="18" cy="18" r="18"/>
</g>
<g id="Layer_2">
	<path fill="#FFFFFF" stroke="#FFFFFF" stroke-width="0.2572" stroke-miterlimit="10" d="M7.482,16.352
		c1.003-1.001,7.865-7.863,8.874-8.873c1.643-1.647,1.649-1.632,3.282,0c1.008,1.007,7.844,7.814,8.869,8.838
		c1.652,1.652,1.663,1.681-0.002,3.347c-1.015,1.013-7.742,7.745-8.803,8.807c-1.704,1.705-1.707,1.705-3.405,0.003
		c-1.056-1.055-7.815-7.848-8.815-8.846C5.822,17.964,5.856,17.981,7.482,16.352z"/>
	<path fill="none" stroke="#FF8000" stroke-width="0.5143" stroke-miterlimit="10" d="M8.512,16.512
		c0.906-0.904,7.098-7.094,8.006-8.003c1.481-1.486,1.488-1.475,2.961,0c0.908,0.91,7.077,7.048,8,7.972
		c1.49,1.492,1.499,1.518-0.003,3.021c-0.912,0.915-6.985,6.99-7.94,7.946c-1.536,1.538-1.539,1.538-3.072,0.003
		c-0.952-0.952-7.049-7.08-7.952-7.983C7.013,17.966,7.044,17.981,8.512,16.512z"/>
	<g>
		<polygon fill="#FF8000" points="11.419,19.317 11.419,16.684 16.685,16.684 16.685,11.414 19.315,11.414 19.315,16.684 
			24.581,16.684 24.581,19.317 19.315,19.317 19.315,24.586 16.685,24.586 16.685,19.317 		"/>
	</g>
</g>
</svg>
