<?xml version="1.0" encoding="utf-8"?>
<!-- Generator: Adobe Illustrator 19.2.1, SVG Export Plug-In . SVG Version: 6.00 Build 0)  -->
<svg version="1.1" id="Layer_1" xmlns="http://www.w3.org/2000/svg" xmlns:xlink="http://www.w3.org/1999/xlink" x="0px" y="0px"
	 viewBox="0 0 36 36" style="enable-background:new 0 0 36 36;" xml:space="preserve">
<style type="text/css">
	.st0{fill:#FF8000;}
	.st1{fill:#FFFFFF;}
</style>
<g id="Layer_1_1_">
	<circle class="st0" cx="18" cy="18" r="18"/>
</g>
<path class="st1" d="M16.7,13.6h-4.4V26H9.9V13.6H5.5v-1.9h11.2V13.6z"/>
<path class="st1" d="M29.7,21.4L29.7,21.4c0,1.5-0.4,2.7-1.4,3.6s-2.3,1.3-3.9,1.3c-1.7,0-3-0.6-4.1-1.7s-1.6-2.6-1.6-4.3v-2.7
	c0-1.7,0.5-3.2,1.5-4.3s2.4-1.7,4-1.7c1.7,0,3,0.4,4,1.3c1,0.9,1.4,2,1.4,3.5v0.1h-2.3c0-1-0.3-1.7-0.8-2.2s-1.3-0.8-2.3-0.8
	s-1.7,0.4-2.3,1.2c-0.6,0.8-0.9,1.7-0.9,2.9v2.8c0,1.2,0.3,2.2,0.9,2.9c0.6,0.8,1.4,1.2,2.4,1.2s1.7-0.3,2.2-0.8s0.8-1.3,0.8-2.2
	L29.7,21.4L29.7,21.4z"/>
</svg>
