<?xml version="1.0" encoding="utf-8"?>
<!-- Generator: Adobe Illustrator 19.2.1, SVG Export Plug-In . SVG Version: 6.00 Build 0)  -->
<svg version="1.1" id="Layer_1" xmlns="http://www.w3.org/2000/svg" xmlns:xlink="http://www.w3.org/1999/xlink" x="0px" y="0px"
	 viewBox="0 0 36 36" style="enable-background:new 0 0 36 36;" xml:space="preserve">
<style type="text/css">
	.st0{fill:#FF8000;}
	.st1{fill:#FFFFFF;}
	.st2{fill:none;stroke:#FFFFFF;stroke-miterlimit:10;}
</style>
<g id="Layer_1_1_">
	<circle class="st0" cx="18" cy="18" r="18"/>
</g>
<path class="st1" d="M10.8,7.4h1.5c0.6,0,1,0.1,1.3,0.2c0.3,0.2,0.4,0.4,0.4,0.7c0,0.2-0.1,0.4-0.2,0.5c-0.1,0.1-0.3,0.2-0.5,0.3v0
	c0.3,0.1,0.4,0.2,0.6,0.3C13.9,9.6,14,9.8,14,10c0,0.3-0.1,0.6-0.4,0.8c-0.3,0.2-0.7,0.3-1.2,0.3h-1.6V7.4z M11.9,8.8h0.3
	c0.2,0,0.3,0,0.4-0.1c0.1-0.1,0.1-0.1,0.1-0.3c0-0.2-0.2-0.3-0.5-0.3h-0.3V8.8z M11.9,9.5v0.8h0.4c0.4,0,0.5-0.1,0.5-0.4
	c0-0.1,0-0.2-0.1-0.3c-0.1-0.1-0.2-0.1-0.4-0.1H11.9z"/>
<path class="st1" d="M16.6,8.1c-0.3,0-0.5,0.1-0.6,0.3c-0.2,0.2-0.2,0.5-0.2,0.8c0,0.7,0.3,1.1,0.9,1.1c0.2,0,0.4,0,0.5-0.1
	c0.2,0,0.3-0.1,0.5-0.2V11c-0.3,0.1-0.7,0.2-1.2,0.2c-0.6,0-1.1-0.2-1.5-0.5c-0.3-0.3-0.5-0.8-0.5-1.4c0-0.4,0.1-0.7,0.2-1
	c0.2-0.3,0.4-0.5,0.7-0.7c0.3-0.2,0.7-0.2,1.1-0.2c0.5,0,0.9,0.1,1.3,0.3l-0.3,0.8c-0.2-0.1-0.3-0.1-0.5-0.2
	C16.9,8.2,16.8,8.1,16.6,8.1"/>
<path class="st1" d="M21.3,10c0,0.2-0.1,0.4-0.2,0.6c-0.1,0.2-0.3,0.3-0.6,0.4c-0.2,0.1-0.5,0.2-0.9,0.2c-0.3,0-0.5,0-0.7-0.1
	c-0.2,0-0.4-0.1-0.6-0.2V10c0.2,0.1,0.4,0.2,0.7,0.2c0.2,0.1,0.4,0.1,0.6,0.1c0.2,0,0.3,0,0.4-0.1c0.1-0.1,0.1-0.1,0.1-0.2
	c0-0.1,0-0.1,0-0.1c0,0-0.1-0.1-0.2-0.1c-0.1,0-0.3-0.1-0.6-0.2c-0.3-0.1-0.5-0.2-0.6-0.3c-0.1-0.1-0.2-0.2-0.3-0.4
	c-0.1-0.1-0.1-0.3-0.1-0.5c0-0.3,0.1-0.6,0.4-0.8c0.3-0.2,0.7-0.3,1.2-0.3c0.4,0,0.9,0.1,1.3,0.3l-0.3,0.8c-0.4-0.2-0.7-0.2-1-0.2
	c-0.1,0-0.3,0-0.3,0.1c-0.1,0-0.1,0.1-0.1,0.2c0,0.1,0,0.1,0.1,0.2c0.1,0.1,0.3,0.2,0.7,0.3c0.4,0.1,0.6,0.3,0.8,0.5
	C21.2,9.5,21.3,9.7,21.3,10"/>
<path class="st1" d="M24.5,11.1l-0.2-0.7h-1.4l-0.2,0.7h-1.2l1.4-3.8h1.5l1.4,3.8H24.5z M24,9.6L23.9,9c0-0.1-0.1-0.3-0.2-0.5
	c-0.1-0.2-0.1-0.4-0.1-0.5c0,0.1-0.1,0.2-0.1,0.4c-0.1,0.2-0.2,0.6-0.3,1.2H24z"/>
<rect x="11.8" y="12.6" class="st1" width="3.2" height="10.5"/>
<polygon class="st1" points="22.7,23.1 19.5,23.1 19.5,14.9 16.7,14.9 16.7,12.6 25.5,12.6 25.5,14.9 22.7,14.9 "/>
<path class="st1" d="M16.7,28.7h-3.6v-0.8l1.2-1.1c0.3-0.3,0.6-0.5,0.7-0.7c0.1-0.1,0.2-0.2,0.2-0.3c0-0.1,0.1-0.2,0.1-0.3
	c0-0.1,0-0.2-0.1-0.3c-0.1-0.1-0.2-0.1-0.4-0.1c-0.2,0-0.3,0-0.5,0.1c-0.2,0.1-0.3,0.2-0.5,0.4L13,24.9c0.3-0.2,0.5-0.4,0.6-0.4
	c0.2-0.1,0.4-0.2,0.6-0.2c0.2,0,0.4-0.1,0.7-0.1c0.3,0,0.6,0.1,0.9,0.2c0.3,0.1,0.5,0.2,0.6,0.4c0.1,0.2,0.2,0.4,0.2,0.6
	c0,0.2,0,0.3-0.1,0.5c0,0.1-0.1,0.3-0.2,0.4c-0.1,0.1-0.2,0.3-0.4,0.5c-0.2,0.2-0.5,0.5-1.1,0.9v0h1.9V28.7z"/>
<path class="st1" d="M17.3,28.2c0-0.2,0.1-0.3,0.2-0.4c0.1-0.1,0.3-0.2,0.5-0.2c0.2,0,0.4,0.1,0.5,0.2c0.1,0.1,0.2,0.2,0.2,0.4
	c0,0.2-0.1,0.3-0.2,0.4c-0.1,0.1-0.3,0.2-0.5,0.2c-0.2,0-0.4-0.1-0.5-0.2C17.3,28.5,17.3,28.4,17.3,28.2"/>
<path class="st1" d="M22.9,26.5c0,0.8-0.1,1.4-0.4,1.7c-0.3,0.4-0.7,0.6-1.4,0.6c-0.6,0-1-0.2-1.3-0.6c-0.3-0.4-0.5-1-0.5-1.7
	c0-0.8,0.1-1.4,0.4-1.8c0.3-0.4,0.7-0.6,1.4-0.6c0.6,0,1,0.2,1.3,0.6C22.7,25.1,22.9,25.7,22.9,26.5 M20.6,26.5c0,0.5,0,0.9,0.1,1
	c0.1,0.2,0.2,0.3,0.4,0.3c0.2,0,0.3-0.1,0.4-0.3c0.1-0.2,0.1-0.5,0.1-1c0-0.5,0-0.8-0.1-1c-0.1-0.2-0.2-0.3-0.4-0.3
	c-0.2,0-0.3,0.1-0.4,0.3C20.6,25.6,20.6,26,20.6,26.5"/>
<rect x="9.2" y="5.5" class="st2" width="17.6" height="24.9"/>
</svg>
