<?xml version="1.0" encoding="utf-8"?>
<!-- Generator: Adobe Illustrator 16.0.4, SVG Export Plug-In . SVG Version: 6.00 Build 0)  -->
<!DOCTYPE svg PUBLIC "-//W3C//DTD SVG 1.1//EN" "http://www.w3.org/Graphics/SVG/1.1/DTD/svg11.dtd">
<svg version="1.1" xmlns="http://www.w3.org/2000/svg" xmlns:xlink="http://www.w3.org/1999/xlink" x="0px" y="0px" width="36px"
	 height="36px" viewBox="0 0 36 36" enable-background="new 0 0 36 36" xml:space="preserve">
<g id="Layer_1">
	<circle fill="#FF8000" cx="18" cy="18" r="18"/>
</g>
<g id="Layer_2">
	<g>
		<path fill-rule="evenodd" clip-rule="evenodd" fill="#FFFFFF" d="M5.959,15.27c0-5.406,3.058-6.717,8.136-6.717h8.52
			c6.441,0,7.316,2.348,7.316,5.952v0.546h-5.57c0-1.802-1.035-2.021-2.84-2.021h-6.17c-2.84,0-3.549,0.655-3.549,3.823v2.293
			c0,3.167,0.709,3.822,3.549,3.822h6.062c1.473,0,2.947-0.217,2.947-1.964v-0.547h-7.043v-3.823h12.723v5.243
			c0,5.297-2.785,5.569-9.119,5.569h-6.827c-5.078,0-8.136-1.311-8.136-6.717V15.27L5.959,15.27L5.959,15.27z"/>
	</g>
</g>
</svg>
