<?xml version="1.0" encoding="utf-8"?>
<!-- Generator: Adobe Illustrator 16.0.4, SVG Export Plug-In . SVG Version: 6.00 Build 0)  -->
<!DOCTYPE svg PUBLIC "-//W3C//DTD SVG 1.1//EN" "http://www.w3.org/Graphics/SVG/1.1/DTD/svg11.dtd">
<svg version="1.1" id="Layer_1" xmlns="http://www.w3.org/2000/svg" xmlns:xlink="http://www.w3.org/1999/xlink" x="0px" y="0px"
	 width="300px" height="100px" viewBox="0 0 300 100" enable-background="new 0 0 300 100" xml:space="preserve">
<g>
	<polygon fill="#FFFFFF" points="228.869,11.473 191.685,11.473 193.976,5.062 228.869,5.062 	"/>
	<path fill="#FFFFFF" d="M129.745,5.061l34.523-0.004l2.26,6.427c0.016-0.009-36.772,0.008-36.772,0
		C129.756,11.475,129.734,5.061,129.745,5.061z"/>
	<path fill="#FFFFFF" d="M102.327,5.06c5.69,0.549,10.636,2.576,14.85,6.423c0,0-62.579,0.006-62.579,0c0-0.008,0-6.424,0-6.424
		L102.327,5.06z"/>
	<g>
		<rect x="5.491" y="5.06" fill="#FFFFFF" width="43.473" height="6.411"/>
		<path fill="#FFFFFF" d="M27.229,8.265"/>
	</g>
	<path fill="#FFFFFF" d="M228.869,23.502h-41.444c0,0,2.26-6.377,2.246-6.38h39.198V23.502z"/>
	<polygon fill="#FFFFFF" points="170.799,23.51 129.743,23.51 129.743,17.121 168.55,17.121 	"/>
	<path fill="#FFFFFF" d="M122.049,17.119c0.824,2.106,1.801,3.907,1.801,6.38H54.61v-6.38H122.049z"/>
	<g>
		<rect x="5.491" y="17.119" fill="#FFFFFF" width="43.473" height="6.38"/>
		<path fill="#FFFFFF" d="M27.229,20.309"/>
	</g>
	<polygon fill="#FFFFFF" points="183.185,35.56 185.459,29.15 216.579,29.16 216.579,35.546 	"/>
	<polygon fill="#FFFFFF" points="172.796,29.149 175.063,35.56 141.984,35.56 141.984,29.149 	"/>
	<path fill="#FFFFFF" d="M124.399,29.148c0,2.198-0.275,4.489-0.915,6.413h-18.959v-6.413H124.399z"/>
	<g>
		<rect x="17.608" y="29.179" fill="#FFFFFF" width="18.686" height="6.38"/>
		<path fill="#FFFFFF" d="M26.95,32.369"/>
	</g>
	<g>
		<rect x="67.188" y="29.148" fill="#FFFFFF" width="18.653" height="6.411"/>
		<path fill="#FFFFFF" d="M76.515,32.354"/>
	</g>
	<path fill="#FFFFFF" d="M160.358,42.483c0,0,0.005,4.852,0.001,4.861h-18.375v-6.38H177l2.175,5.949
		c0.01,0.004,2.097-5.963,2.101-5.951h35.292v6.382h-18.286c-0.002-0.009-0.01-4.86-0.01-4.86l-1.691,4.86l-34.533-0.009
		L160.358,42.483z"/>
	<path fill="#FFFFFF" d="M67.188,40.962h53.547V40.96c-1.171,2.137-3.296,4.735-5.312,6.383c0,0-48.237,0.009-48.237,0
		C67.187,47.335,67.188,40.974,67.188,40.962z"/>
	<g>
		<rect x="17.608" y="40.961" fill="#FFFFFF" width="18.686" height="6.382"/>
		<path fill="#FFFFFF" d="M26.95,44.151"/>
	</g>
	<g>
		<rect x="198.282" y="52.992" fill="#FFFFFF" width="18.286" height="6.38"/>
		<path fill="#FFFFFF" d="M207.424,56.182"/>
	</g>
	<path fill="#FFFFFF" d="M160.358,52.992h-18.374v6.38c-0.009-0.003,18.379,0.002,18.379,0
		C160.364,59.37,160.385,52.992,160.358,52.992z"/>
	<path fill="#FFFFFF" d="M194.588,52.992c-0.083-0.009-2.142,6.377-2.229,6.38l-26.045,0.011c-0.021-0.01-2.29-6.401-2.292-6.392
		H194.588z"/>
	<path fill="#FFFFFF" d="M67.185,52.99h48.147c2.198,1.833,4.184,4.091,5.74,6.382c0.088-0.003-53.886,0.002-53.886,0
		C67.187,59.37,67.185,52.998,67.185,52.99z"/>
	<path fill="#FFFFFF" d="M36.291,59.371V52.99H17.639c0,0,0.003,6.379,0,6.379C17.635,59.37,36.282,59.371,36.291,59.371z"/>
	<g>
		<rect x="198.282" y="65.021" fill="#FFFFFF" width="18.285" height="6.381"/>
		<path fill="#FFFFFF" d="M207.424,68.212"/>
	</g>
	<g>
		<rect x="141.982" y="65.021" fill="#FFFFFF" width="18.376" height="6.38"/>
		<path fill="#FFFFFF" d="M151.171,68.211"/>
	</g>
	<path fill="#FFFFFF" d="M188.084,71.432c0.005-0.029,2.255-6.416,2.29-6.411h-22.141c-0.038-0.003,2.27,6.382,2.27,6.382
		S188.08,71.459,188.084,71.432z"/>
	<path fill="#FFFFFF" d="M67.187,71.402c0,0.025-0.001-6.38,0-6.381h18.93c0,0,0.017,6.383,0,6.383
		C86.099,71.404,67.187,71.395,67.187,71.402z"/>
	<path fill="#FFFFFF" d="M123.729,65.02c0.916,1.923,1.007,4.212,1.189,6.41H104.86v-6.41H123.729z"/>
	<g>
		<rect x="17.639" y="65.02" fill="#FFFFFF" width="18.652" height="6.379"/>
		<path fill="#FFFFFF" d="M26.965,68.21"/>
	</g>
	<g>
		<rect x="198.282" y="76.803" fill="#FFFFFF" width="30.586" height="6.383"/>
		<path fill="#FFFFFF" d="M213.574,79.996"/>
	</g>
	<g>
		<rect x="129.742" y="76.803" fill="#FFFFFF" width="30.617" height="6.383"/>
		<path fill="#FFFFFF" d="M145.049,79.996"/>
	</g>
	<polygon fill="#FFFFFF" points="183.969,83.187 174.63,83.187 172.39,76.803 186.129,76.803 	"/>
	<path fill="#FFFFFF" d="M5.489,76.803v6.38h43.443c0.019,0.01-0.02-6.377,0-6.377C48.95,76.807,5.438,76.803,5.489,76.803z"/>
	<path fill="#FFFFFF" d="M124.124,76.803c-0.458,2.105-0.877,4.671-2.415,6.383l-0.573-0.003H54.608v-6.38H124.124z"/>
	<polygon fill="#FFFFFF" points="179.736,95.229 178.877,95.229 176.695,88.833 181.977,88.833 	"/>
	<g>
		<rect x="198.28" y="88.833" fill="#FFFFFF" width="30.588" height="6.411"/>
		<path fill="#FFFFFF" d="M213.574,92.039"/>
	</g>
	<path fill="#FFFFFF" d="M54.598,95.229v-6.385c0,0,62.765,0.008,62.944,0.008c-4.214,4.028-9.996,6.303-16.224,6.393l-46.711-0.013
		"/>
	<g>
		<rect x="129.742" y="88.833" fill="#FFFFFF" width="30.617" height="6.411"/>
		<path fill="#FFFFFF" d="M145.049,92.039"/>
	</g>
	<path fill="#FFFFFF" d="M48.932,88.861c0,0-0.02,6.367,0,6.367c0.019,0-43.43,0.026-43.443,0.013c-0.011-0.013,0.012-6.398,0-6.398
		C5.478,88.844,48.912,88.883,48.932,88.861z"/>
</g>
</svg>
