<?xml version="1.0" encoding="utf-8"?>
<!-- Generator: Adobe Illustrator 19.2.1, SVG Export Plug-In . SVG Version: 6.00 Build 0)  -->
<svg version="1.1" id="Layer_1" xmlns="http://www.w3.org/2000/svg" xmlns:xlink="http://www.w3.org/1999/xlink" x="0px" y="0px"
	 viewBox="0 0 36 36" style="enable-background:new 0 0 36 36;" xml:space="preserve">
<style type="text/css">
	.st0{fill:#FF8000;}
	.st1{enable-background:new    ;}
	.st2{fill:#FFFFFF;}
</style>
<g id="Layer_1_1_">
	<circle class="st0" cx="18" cy="18" r="18"/>
</g>
<g id="Layer_3">
	<g class="st1">
		<path class="st2" d="M20.5,11.8v9.4c0,1.6-0.5,2.8-1.6,3.7s-2.4,1.3-4,1.3c-1.6,0-2.9-0.4-3.9-1.3s-1.5-2.1-1.5-3.7v-9.4h2.4v9.4
			c0,1,0.3,1.8,0.8,2.3c0.6,0.5,1.3,0.8,2.2,0.8c1,0,1.7-0.3,2.3-0.8c0.6-0.5,0.9-1.3,0.9-2.3v-9.4H20.5z"/>
		<path class="st2" d="M25.8,26h-2.4V11.8h2.4V26z"/>
	</g>
</g>
</svg>
