<?xml version="1.0" encoding="utf-8"?>
<!-- Generator: Adobe Illustrator 16.0.4, SVG Export Plug-In . SVG Version: 6.00 Build 0)  -->
<!DOCTYPE svg PUBLIC "-//W3C//DTD SVG 1.1//EN" "http://www.w3.org/Graphics/SVG/1.1/DTD/svg11.dtd">
<svg version="1.1" id="Layer_1" xmlns="http://www.w3.org/2000/svg" xmlns:xlink="http://www.w3.org/1999/xlink" x="0px" y="0px"
	 width="300px" height="100px" viewBox="0 0 300 100" enable-background="new 0 0 300 100" xml:space="preserve">
<g>
	<polygon fill="#FFFFFF" points="12.147,16.777 12.259,16.777 23.954,48.08 35.74,48.08 35.74,5.266 27.389,5.266 27.389,34.917 
		27.266,34.917 15.887,5.266 3.784,5.266 3.784,48.08 12.147,48.08 	"/>
	<path fill="#FFFFFF" d="M57.647,42.392c-5.042,0-5.694-4.742-5.694-15.712c0-10.972,0.652-15.72,5.694-15.72
		c2.664,0,3.671,2.146,3.671,7.831h8.779c0.354-9.186-3.324-14.231-12.45-14.231c-14.763,0-14.763,10.79-14.763,22.115
		c0,11.201,0,22.111,14.763,22.111c8.359,0,12.928-3.677,12.928-15.113h-8.836C61.618,37.058,61.799,42.392,57.647,42.392z"/>
	<path fill="#FFFFFF" d="M115.996,36.398c0-13.464-18.031-12.745-18.031-20.859c0-2.971,1.725-4.574,4.627-4.574
		c3.617,0,4.155,3.264,4.155,6.463h8.711c0.592-8.955-3.74-12.864-12.445-12.864c-10.921,0-14.114,5.334-14.114,12.035
		c0,12.763,18.018,13.222,18.018,20.935c0,2.896-1.477,4.858-4.495,4.858c-4.932,0-5.103-3.443-5.103-7.534h-8.951
		c-0.476,7.414,1.598,13.933,12.688,13.933C107.861,48.79,115.996,47.495,115.996,36.398z"/>
	<polygon fill="#FFFFFF" points="128.992,48.08 137.945,48.08 137.945,12.393 147.911,12.393 147.911,5.266 119.024,5.266 
		119.024,12.393 128.992,12.393 	"/>
	<path fill="#FFFFFF" d="M157.08,5.266L145.229,48.08h8.832l2.425-9.486h12.225l2.359,9.486h9.427L168.872,5.266H157.08z
		 M158.279,32.02l4.082-18.512h0.118l4.331,18.512H158.279z"/>
	<polygon fill="#FFFFFF" points="196.643,48.08 196.643,12.393 206.614,12.393 206.614,5.266 177.729,5.266 177.729,12.393 
		187.701,12.393 187.701,48.08 	"/>
	<polygon fill="#FFFFFF" points="234.627,41.501 219.73,41.501 219.73,29.002 233.019,29.002 233.019,22.417 219.73,22.417 
		219.73,11.856 234.142,11.856 234.142,5.266 210.772,5.266 210.772,48.08 234.627,48.08 	"/>
	<path fill="#FFFFFF" d="M21.149,83.773c0,4.567,0,11.069-7.133,11.069c-7.125,0-7.125-6.502-7.125-11.069V61.766H3.784v24.309
		c0,9.021,4.749,11.393,10.232,11.393c5.486,0,10.229-2.371,10.229-11.393V61.766h-3.096V83.773z"/>
	<polygon fill="#FFFFFF" points="52.482,92.412 52.385,92.51 38.179,61.766 33.425,61.766 33.425,96.77 36.531,96.77 36.531,65.804 
		36.632,65.708 50.887,96.77 55.579,96.77 55.579,61.766 52.482,61.766 	"/>
	<rect x="65.343" y="61.766" fill="#FFFFFF" width="3.103" height="35.004"/>
	<polygon fill="#FFFFFF" points="86.573,93.099 86.488,93.099 78.193,61.766 74.892,61.766 84.641,96.77 88.516,96.77 
		98.213,61.766 95.212,61.766 	"/>
	<polygon fill="#FFFFFF" points="107.619,80.103 119.815,80.103 119.815,77.479 107.619,77.479 107.619,64.391 120.386,64.391 
		120.386,61.766 104.527,61.766 104.527,96.77 120.729,96.77 120.729,94.162 107.619,94.162 	"/>
	<path fill="#FFFFFF" d="M140.559,78.596v-0.092c4.707-1.074,5.432-3.984,5.432-8.348c0-6.149-1.69-8.396-8.435-8.396h-9.643v35.004
		h3.099V79.811h5.874c6.729,0,5.714,6.729,5.756,8.245c0.06,1.874,0.194,7.705,0.486,8.709h2.959c-0.097-1.35-0.34-2.699-0.34-4.061
		C145.753,80.188,145.461,79.604,140.559,78.596z M136.05,77.188h-5.038V64.391h6.351c3.627,0,5.518,0.929,5.518,5.723
		C142.88,75.982,140.715,77.188,136.05,77.188z"/>
	<path fill="#FFFFFF" d="M163.852,77.338c-3.985-2.862-6.604-3.002-6.604-8.197c0-4.119,2.393-5.432,6.15-5.432
		c4.763,0,5.842,2.63,5.939,6.934h3.132c0-5.031-1.544-9.557-8.823-9.557c-5.712,0-9.546,2.525-9.513,8.585
		c0.064,3.498,0.356,5.583,7.148,9.757c5.032,3.104,8.186,4.454,8.186,9.211c0,4.028-1.987,6.204-6.08,6.204
		c-6.252,0-6.521-4.027-6.521-7.904h-3.207c-0.292,6.835,2.764,10.523,9.588,10.523c6.113,0,9.31-3.051,9.31-9.314
		C172.577,81.36,168.171,80.438,163.852,77.338z"/>
	<rect x="181.323" y="61.766" fill="#FFFFFF" width="3.106" height="35.004"/>
	<polygon fill="#FFFFFF" points="191.113,64.391 199.649,64.391 199.649,96.77 202.761,96.77 202.761,64.391 211.291,64.391 
		211.291,61.766 191.113,61.766 	"/>
	<polygon fill="#FFFFFF" points="234.671,61.766 226.269,79.174 218.272,61.766 214.768,61.766 224.67,82.234 224.67,96.77 
		227.786,96.77 227.786,82.234 237.77,61.766 	"/>
</g>
</svg>
