<?xml version="1.0" encoding="utf-8"?>
<!-- Generator: Adobe Illustrator 16.0.4, SVG Export Plug-In . SVG Version: 6.00 Build 0)  -->
<!DOCTYPE svg PUBLIC "-//W3C//DTD SVG 1.1//EN" "http://www.w3.org/Graphics/SVG/1.1/DTD/svg11.dtd">
<svg version="1.1" id="Layer_1" xmlns="http://www.w3.org/2000/svg" xmlns:xlink="http://www.w3.org/1999/xlink" x="0px" y="0px"
	 width="300px" height="100px" viewBox="0 0 300 100" enable-background="new 0 0 300 100" xml:space="preserve">
<g>
	<g>
		<path fill="#FFFFFF" d="M68.109,53.658L67.908,9.393c-0.076-1.366-1.338-2.621-2.741-2.835c-0.19-0.041-6.839-0.688-29.434-0.688
			h-0.329c-20.432,0-27.935,0.402-29.438,0.682C4.624,6.779,3.244,8.121,3.182,9.488c-0.016,0.147-0.165,44.21-0.165,44.21
			c-0.014,0.21-0.157,3.086,0.973,6.841c1.307,4.352,4.153,10.135,11.091,15.566c11.508,9.01,19.743,12.635,20.057,12.771
			c0.187,0.081,0.343,0.113,0.407,0.113c0.068,0,0.221-0.014,0.445-0.119c0.314-0.146,8.481-3.85,19.988-12.766
			c6.931-5.371,9.847-11.13,11.16-15.495C68.282,56.813,68.125,53.886,68.109,53.658 M5.214,9.795
			c0.093-0.626,0.538-1.147,1.252-1.267c1.54-0.286,8.673-0.671,28.977-0.671h0.333c22.342,0,28.852,0.655,28.909,0.666
			c1.072,0.165,1.228,0.887,1.244,1.19l0.143,32.504c-2.929-0.133-11.349-0.401-30.263-0.401c-19.289,0-27.844,0.278-30.726,0.406
			C5.136,29.197,5.214,9.795,5.214,9.795 M41.956,56.165c1.137,0.713,3.43,0.439,3.472,0.571c0.044,0.127-1.97,1.306-2.467,2.532
			c-0.211-0.428-0.523-0.789-0.955-1.021c-0.153-0.082-0.351-0.151-0.562-0.202c0.137-0.163,0.26-0.333,0.332-0.486
			c0.15-0.31,0.219-0.635,0.219-0.963C41.995,56.451,41.983,56.308,41.956,56.165 M37.25,52.716
			c-0.489,0.062-0.947,0.24-1.313,0.593c-0.123,0.12-0.249,0.287-0.363,0.469c-0.111-0.182-0.242-0.345-0.362-0.467
			c-0.358-0.346-0.805-0.524-1.282-0.591c1.056-0.832,1.518-3.158,1.656-3.158C35.722,49.562,36.224,51.88,37.25,52.716
			 M29.367,57.551c0.08,0.155,0.198,0.33,0.333,0.493c-0.209,0.05-0.403,0.12-0.553,0.199c-0.438,0.231-0.751,0.592-0.963,1.023
			c-0.458-1.262-2.54-2.427-2.493-2.556c0.041-0.129,2.405,0.109,3.514-0.611c-0.033,0.166-0.054,0.333-0.054,0.5
			C29.151,56.926,29.217,57.245,29.367,57.551 M8.437,55.565c-0.878,0-1.609-0.612-1.865-1.491c-0.195,0.701-0.752,1.295-1.52,1.447
			l-0.055,0.012l0.002-0.296l0.104-11.582c0.055,0,14.309-0.25,23.314-0.385c0.107,0,0.205,0,0.309-0.005l-0.097,0.18
			c-0.248,0.457-0.694,0.753-1.223,0.917c0.841,0.224,1.461,0.968,1.461,1.852c0,0.859-0.583,1.578-1.433,1.85
			c0.829,0.234,1.433,0.97,1.433,1.846c0,0.86-0.583,1.578-1.433,1.846c0.829,0.239,1.433,0.973,1.433,1.848
			c0,1.081-0.88,1.96-1.958,1.96c-0.858,0-1.576-0.585-1.848-1.432c-0.238,0.824-0.969,1.432-1.849,1.432
			c-0.854,0-1.573-0.585-1.845-1.432c-0.239,0.824-0.97,1.432-1.848,1.432c-0.858,0-1.576-0.585-1.847-1.432
			c-0.236,0.824-0.968,1.432-1.846,1.432c-0.86,0-1.576-0.585-1.849-1.432c-0.236,0.824-0.97,1.432-1.845,1.432
			c-0.859,0-1.577-0.585-1.848-1.432C10.045,54.958,9.314,55.565,8.437,55.565 M28.867,73.199c0,0.853-0.583,1.573-1.433,1.846
			c0.829,0.235,1.433,0.971,1.433,1.846c0,0.857-0.583,1.576-1.433,1.843c0.829,0.24,1.433,0.973,1.433,1.847
			c0,0.827-0.53,1.555-1.286,1.833c-0.1-0.064-0.196-0.128-0.31-0.207c-2.124-1.442-6.619-4.506-8.807-6.158
			c-4.404-3.319-7.33-6.639-7.33-6.639c-0.196-0.245-0.38-0.486-0.562-0.727c-0.042-0.055-0.076-0.104-0.118-0.158
			c0.353-0.604,0.975-0.981,1.677-0.981c0.859,0,1.575,0.58,1.846,1.433c0.237-0.831,0.968-1.433,1.848-1.433
			c0.855,0,1.575,0.58,1.846,1.433c0.238-0.827,0.97-1.433,1.847-1.433c0.86,0,1.578,0.58,1.849,1.433
			c0.236-0.831,0.968-1.433,1.843-1.433c0.862,0,1.577,0.58,1.849,1.433c0.239-0.831,0.968-1.433,1.848-1.433
			c1.079,0,1.958,0.876,1.958,1.959c0,0.855-0.583,1.573-1.433,1.845C28.262,71.587,28.867,72.319,28.867,73.199 M29.48,68.355
			c-0.113-0.081,0.835-2.244,0.5-3.523c0.428,0.229,0.898,0.352,1.391,0.285c0.172-0.031,0.373-0.087,0.577-0.169
			c-0.006,0.076-0.011,0.154-0.011,0.223c0,0.134,0.007,0.259,0.026,0.369c0.086,0.495,0.349,0.904,0.699,1.238
			C31.321,66.841,29.592,68.435,29.48,68.355 M35.579,67.151c-1.3-0.016-2.719-0.606-2.915-1.723
			c-0.06-0.356,0.035-0.972,0.183-1.176l0.481-0.556l0.406-0.468l0.164-0.194c0.231-0.259,0.545-0.616,0.512-0.912
			c0,0-0.021-0.155-0.185-0.288c-0.167-0.125-0.332-0.083-0.332-0.083c-0.287,0.06-0.533,0.467-0.711,0.768l-0.129,0.214
			l-0.314,0.527l-0.387,0.633c-0.148,0.205-0.703,0.482-1.06,0.537c-1.121,0.153-2.125-1.008-2.544-2.266
			c-0.391-1.237-0.264-2.77,0.735-3.308c0.318-0.162,0.931-0.262,1.174-0.188l0.68,0.286l0.565,0.244l0.236,0.098
			c0.317,0.138,0.757,0.325,1.023,0.203c0,0,0.158-0.075,0.216-0.263c0.06-0.19-0.02-0.343-0.02-0.343
			c-0.143-0.257-0.605-0.361-0.944-0.436l-0.251-0.06l-0.599-0.139l-0.72-0.167c-0.24-0.078-0.678-0.519-0.84-0.845
			c-0.495-1.018,0.31-2.34,1.37-3.122c1.059-0.755,2.554-1.103,3.371-0.32c0.257,0.252,0.542,0.807,0.542,1.058l-0.062,0.734
			l-0.053,0.615l-0.021,0.253c-0.032,0.346-0.076,0.822,0.124,1.039c0,0,0.101,0.123,0.318,0.123c0.215,0,0.317-0.123,0.317-0.123
			c0.2-0.216,0.158-0.693,0.121-1.039l-0.016-0.253l-0.055-0.615l-0.062-0.734c0.001-0.251,0.285-0.806,0.542-1.058
			c0.818-0.787,2.315-0.435,3.373,0.32l0.022,0.018c1.04,0.773,1.838,2.088,1.344,3.107c-0.16,0.323-0.598,0.764-0.835,0.842
			l-0.709,0.167L39.018,58.4l-0.248,0.06c-0.337,0.074-0.802,0.179-0.949,0.436c0,0-0.079,0.13-0.018,0.343
			c0.062,0.213,0.216,0.263,0.216,0.263c0.271,0.123,0.708-0.065,1.026-0.203l0.234-0.098l0.562-0.239l0.688-0.291
			c0.241-0.073,0.854,0.027,1.173,0.188c0.999,0.538,1.127,2.07,0.728,3.334c-0.413,1.232-1.417,2.394-2.54,2.24
			c-0.352-0.055-0.91-0.332-1.058-0.537l-0.384-0.631l-0.316-0.529l-0.134-0.219c-0.179-0.296-0.419-0.704-0.708-0.763
			c0,0-0.176-0.027-0.329,0.083c-0.158,0.122-0.185,0.288-0.185,0.288c-0.038,0.296,0.279,0.652,0.509,0.912
			c0,0,0.165,0.194,0.167,0.194l0.408,0.473l0.479,0.551c0.143,0.204,0.24,0.819,0.18,1.176
			C38.32,66.543,36.896,67.136,35.579,67.151 M38.5,66.763c0.344-0.335,0.596-0.734,0.683-1.218
			c0.018-0.111,0.028-0.241,0.028-0.375c0-0.073-0.008-0.146-0.015-0.223c0.202,0.083,0.402,0.139,0.572,0.167
			c0.502,0.069,0.977-0.056,1.408-0.288c-0.345,1.294,0.626,3.421,0.518,3.5C41.581,68.409,39.821,66.841,38.5,66.763
			 M60.544,68.693c-0.198,0.255-0.39,0.509-0.603,0.767c0,0-2.729,3.264-7.405,6.59c-3.398,2.425-7.031,4.944-8.76,6.139
			c-0.109,0.074-0.198,0.138-0.292,0.199c-0.731-0.295-1.221-1.004-1.221-1.806c0-0.855,0.583-1.572,1.433-1.847
			c-0.824-0.235-1.433-0.968-1.433-1.844c0-0.855,0.583-1.575,1.433-1.846c-0.824-0.238-1.433-0.972-1.433-1.846
			c0-0.857,0.583-1.58,1.433-1.849c-0.824-0.24-1.433-0.972-1.433-1.845c0-1.083,0.88-1.959,1.961-1.959
			c0.856,0,1.574,0.581,1.848,1.433c0.236-0.831,0.967-1.433,1.845-1.433c0.858,0,1.579,0.581,1.848,1.433
			c0.238-0.826,0.97-1.433,1.847-1.433c0.858,0,1.576,0.581,1.848,1.433c0.239-0.826,0.97-1.433,1.848-1.433
			c0.855,0,1.574,0.581,1.847,1.433c0.239-0.831,0.968-1.433,1.848-1.433c0.7,0,1.317,0.377,1.671,0.977
			C60.627,68.58,60.589,68.634,60.544,68.693 M66.026,55.229l-0.002,0.292v0.005l-0.036-0.005c-0.71-0.149-1.21-0.718-1.431-1.447
			c-0.218,0.854-0.967,1.491-1.865,1.491c-0.857,0-1.577-0.585-1.848-1.432c-0.236,0.824-0.968,1.432-1.846,1.432
			c-0.862,0-1.577-0.585-1.85-1.432c-0.236,0.824-0.971,1.432-1.845,1.432c-0.858,0-1.577-0.585-1.848-1.432
			c-0.238,0.824-0.971,1.432-1.847,1.432c-0.86,0-1.577-0.585-1.847-1.432c-0.236,0.824-0.971,1.432-1.848,1.432
			c-0.857,0-1.574-0.585-1.847-1.432c-0.238,0.824-0.971,1.432-1.846,1.432c-1.081,0-1.96-0.879-1.96-1.96
			c0-0.857,0.583-1.575,1.435-1.847c-0.827-0.236-1.435-0.969-1.435-1.847c0-0.858,0.583-1.573,1.432-1.848
			c-0.825-0.236-1.432-0.968-1.432-1.847c0-0.866,0.592-1.588,1.455-1.852c-0.504-0.144-0.958-0.445-1.212-0.913l-0.1-0.181
			c0.1,0,0.192,0.004,0.292,0.004c9.219,0.135,23.384,0.38,23.444,0.38L66.026,55.229z"/>
	</g>
	<path fill="#FFFFFF" d="M95.335,30.07c-2.829,0-4.523-1.081-5.186-3.302c-0.208-0.653-0.302-1.685-0.302-3.246V7.274H85.08v14.458
		c0,3.332,0.229,5.903,1.352,7.621c1.54,2.396,4.544,3.659,8.684,3.659c4.343,0,7.274-1.456,8.713-4.332
		c0.662-1.298,1.106-3.059,1.106-7.423V7.274h-3.965v15.92c0,1.235-0.027,2.482-0.225,3.233
		C100.164,28.912,98.443,30.07,95.335,30.07"/>
	<rect x="130.334" y="14.363" fill="#FFFFFF" width="4.656" height="18.249"/>
	<path fill="#FFFFFF" d="M187.288,18.041c0.123-0.502,0.806-3.227,0.889-3.574c-0.558-0.211-1.204-0.398-2.173-0.398
		c-2.99,0-4.233,2.408-4.288,2.519l-0.433-0.097v-2.127h-4.513v18.245h4.656V18.03l0.103-0.066c0.047-0.031,1.067-0.696,2.866-0.696
		C185.823,17.268,186.799,17.738,187.288,18.041"/>
	<path fill="#FFFFFF" d="M165.47,13.997c-7.839,0-8.684,6.66-8.684,9.526c0,6.223,3.193,9.38,9.488,9.38
		c3.595,0,5.59-0.747,6.147-0.99c-0.106-0.31-0.699-1.996-0.832-2.371c-0.49,0.234-1.789,0.748-3.851,0.748
		c-3.781,0-6.221-2.396-6.221-6.109v-0.593h11.656v-0.065c0-2.111-0.133-4.507-1.103-6.246
		C170.792,15.042,168.691,13.997,165.47,13.997 M168.55,21.448h-6.995v-0.227c0-0.323,0-1.309,0.224-2.245
		c0.475-1.987,1.565-2.952,3.329-2.952c2.283,0,3.443,1.475,3.443,4.392V21.448z"/>
	<path fill="#FFFFFF" d="M147.206,28.593l-0.238,0.811l-0.75-3.038c0,0-3.435-11.686-3.53-12.003h-5.025
		c0.206,0.583,6.312,17.99,6.416,18.284h4.649c0.106-0.29,6.517-17.696,6.734-18.284h-4.027c-0.426,1.407-3.568,11.924-3.568,11.924
		L147.206,28.593"/>
	<path fill="#FFFFFF" d="M132.699,6.322c-1.731,0-2.803,0.962-2.803,2.511c0,1.439,1.084,2.406,2.693,2.406
		c1.73,0,2.804-0.963,2.804-2.511C135.393,7.291,134.31,6.322,132.699,6.322"/>
	<path fill="#FFFFFF" d="M119.729,13.959c-3.804,0-5.388,2.054-5.404,2.077l-0.415,0.588v-2.262h-4.512v18.244h4.659V17.503
		l0.12-0.065c0.05-0.026,1.237-0.648,2.922-0.648c2.106,0,3.361,0.898,3.729,2.667c0.153,0.716,0.153,1.712,0.153,2.677v10.472
		h4.695V21.55c0-0.811,0-2.317-0.288-3.605C125.111,16.749,124.008,13.959,119.729,13.959"/>
	<rect x="205.991" y="14.363" fill="#FFFFFF" width="4.654" height="18.249"/>
	<path fill="#FFFFFF" d="M208.358,6.322c-1.73,0-2.804,0.962-2.804,2.511c0,1.439,1.08,2.406,2.692,2.406
		c1.728,0,2.803-0.963,2.803-2.511C211.049,7.291,209.968,6.322,208.358,6.322"/>
	<path fill="#FFFFFF" d="M198.753,22.375l-2.668-1.353c-1.493-0.763-2.32-1.19-2.32-2.507c0-0.938,0.543-2.053,3.116-2.053
		c1.959,0,3.416,0.638,3.924,0.894c0.138-0.379,0.754-2.149,0.867-2.473c-0.441-0.185-2.301-0.886-5.445-0.886
		c-4.19,0-6.497,1.812-6.497,5.104c0,2.625,1.324,3.871,3.607,5.135l2.744,1.498c1.259,0.707,1.869,1.102,1.869,2.322
		c0,1.051-0.576,2.308-3.333,2.308c-2.555,0-4.102-0.664-4.621-0.929c-0.134,0.384-0.757,2.162-0.869,2.478
		c0.417,0.193,2.322,0.99,6.036,0.99c2.603,0,6.972-0.732,6.972-5.616C202.136,25.037,201.152,23.616,198.753,22.375"/>
	<path fill="#FFFFFF" d="M223.868,30.182c-2.637,0-2.857-1.791-2.857-3.625V16.72h5.516v-2.325h-5.516v-4.382h-2.891
		c-0.008,0.064-0.017,0.134-0.017,0.144c-0.357,2.069-1.861,3.875-3.727,4.484c0,0-0.211,0.076-0.364,0.129v1.95h2.339v9.507
		c0,1.767,0.119,3.019,0.353,3.725c0.712,2.072,2.25,2.876,5.483,2.876c2.256,0,3.789-0.493,4.43-0.721
		c-0.096-0.324-0.59-1.967-0.7-2.349C225.543,29.917,224.795,30.182,223.868,30.182"/>
	<path fill="#FFFFFF" d="M237.882,28.662l-0.238,0.818l-0.784-3.151c0,0-3.544-11.654-3.642-11.966h-5.054
		c0.229,0.597,7.401,19.386,7.401,19.386l-0.651,1.798c-0.581,1.646-1.346,2.743-3.175,2.743c-0.718,0-1.506-0.229-1.905-0.359
		c-0.066,0.408-0.378,2.239-0.433,2.539c0.353,0.119,1.323,0.394,2.925,0.394c3.084,0,4.755-1.341,5.958-4.775
		c0,0,7.43-21.136,7.641-21.727h-4.037c-0.094,0.322-3.389,12.033-3.389,12.033L237.882,28.662"/>
	<path fill="#FFFFFF" d="M262.371,13.959c-5.761,0-9.196,3.683-9.196,9.856c0,5.869,3.218,9.235,8.827,9.235
		c5.739,0,9.163-3.686,9.163-9.857C271.165,17.326,267.958,13.959,262.371,13.959 M262.223,30.509c-3.733,0-4.21-3.773-4.21-7.06
		c0-4.87,1.236-6.95,4.138-6.95c3.698,0,4.177,3.75,4.177,7.023C266.328,26.977,265.836,30.509,262.223,30.509"/>
	<path fill="#FFFFFF" d="M275.349,32.606h4.587V16.72h3.831v-2.325h-3.831v-2.927c0-1.346,0.028-2.348,0.391-3
		c0.46-0.826,1.223-1.214,2.395-1.214c0.855,0,1.446,0.227,1.764,0.379c0.124-0.39,0.632-2.004,0.729-2.315
		c-0.391-0.15-1.55-0.527-3.519-0.527c-3.277,0-5.184,1.213-5.993,3.82c-0.33,1.078-0.354,2.866-0.354,4.002v1.782h-0.227h-2.11
		v2.325h2.337V32.606"/>
	<path fill="#FFFFFF" d="M214.622,42.654c-2.932,0-4.755,1.583-4.755,4.125c0,2.373,1.778,3.903,4.529,3.903
		c2.931,0,4.753-1.584,4.753-4.128C219.149,44.185,217.372,42.654,214.622,42.654"/>
	<path fill="#FFFFFF" d="M130.359,54.884c-12.413,0-13.753,10.253-13.753,14.662c0,11.839,8.067,14.326,14.831,14.326
		c5.747,0,8.939-1.072,9.995-1.507c-0.107-0.323-1.151-3.461-1.278-3.833c-0.917,0.389-2.97,1.099-5.942,1.099
		c-6.535,0-9.458-4.271-9.458-8.498v-0.967h17.891c-0.002-3.182-0.192-7.149-1.63-9.864
		C139.04,56.604,135.659,54.884,130.359,54.884 M134.841,66.719h-10.148v-0.569c0-0.729,0-2.093,0.236-3.389
		c0.584-3.132,2.176-4.656,4.87-4.656c3.437,0,5.043,2.051,5.043,6.46V66.719z"/>
	<path fill="#FFFFFF" d="M103.992,66.337L103.992,66.337c0.323-0.09,7.903-2.286,7.903-11.285c0-7.285-6.167-9.351-8.054-9.81
		c-2.19-0.524-5.614-0.778-10.456-0.778c-3.659,0-6.879,0.167-8.268,0.248v38.703h7.753V67.618h2.731
		c0,0,11.024,15.606,11.159,15.797h9.309c-0.54-0.702-12.895-16.856-12.895-16.856L103.992,66.337 M99.241,63.985
		c-0.944,0.236-1.486,0.3-3.482,0.3l-2.889-0.073V48.506l0.19-0.032c0,0,0.287-0.047,0.282-0.044
		c0.007-0.002,0.702-0.122,2.533-0.122c5.299,0,7.877,2.573,7.877,7.875C103.751,61.105,101.42,63.441,99.241,63.985"/>
	<path fill="#FFFFFF" d="M159.241,54.831c-5.533,0-9.068,1.046-10.264,1.468c0.129,0.366,1.254,3.595,1.373,3.931
		c1.013-0.425,3.319-1.218,6.567-1.218c1.779,0,4.257,0.26,5.275,2.539c0.347,0.741,0.506,1.791,0.506,3.295v1.824l-0.026,0.584
		l-4.394-0.196c-3.198,0-6.527,0.149-9.013,1.933c-2.074,1.488-3.046,3.61-3.046,6.67c0,5.064,3.297,8.21,8.606,8.21
		c5.055,0,7.037-2.783,7.056-2.808l1.044-1.42v3.77h7.411V66.318c0-2.366-0.053-4.813-0.7-6.478
		C168.346,56.468,164.942,54.831,159.241,54.831 M162.698,79.15l-0.114,0.067c0,0-0.176,0.097-0.174,0.097
		c-0.041,0.02-1.039,0.714-3.283,0.714c-1.904,0-5.102-0.625-5.102-4.818c0-0.764,0.126-2.65,1.31-3.757
		c1.066-1.008,2.429-1.457,4.419-1.457l2.42,0.058l0.524,0.01V79.15L162.698,79.15z"/>
	<rect x="210.495" y="55.452" fill="#FFFFFF" width="8.03" height="27.965"/>
	<path fill="#FFFFFF" d="M194.35,56.132c-0.067-0.046-1.671-1.134-5.606-1.134c-7.752,0-12.965,6.028-12.965,15.005
		c0,8.811,4.107,13.868,11.265,13.868c5.506,0,7.418-3.089,7.437-3.121l1.062-1.663v4.326h7.75V40.727h-8.033v14.946v1.131
		l-0.364-0.271C194.895,56.533,194.348,56.127,194.35,56.132 M195.259,59.185V78.26l-0.288,0.165
		c-0.056,0.032-1.443,0.806-3.733,0.806c-4.575,0-7.198-3.588-7.198-9.858c0-7.1,2.745-10.703,8.158-10.703
		c1.614,0,2.583,0.336,2.692,0.374L195.259,59.185z"/>
	<path fill="#FFFFFF" d="M242.652,54.831c-5.852,0-8.103,3.324-8.126,3.362l-0.63,0.843l-0.421,0.646v-4.229h-7.748v27.963h8.03
		V60.484l0.301-0.159c0.07-0.038,1.638-0.864,4.01-0.864c2.965,0,4.753,1.239,5.316,3.688c0.216,1.077,0.237,2.853,0.237,3.566v16.7
		h8.091V66.374c0-1.244,0-3.561-0.442-5.538C250.86,59.031,249.203,54.831,242.652,54.831"/>
	<path fill="#FFFFFF" d="M268.533,54.884c-8.172,0-11.83,4.689-11.83,9.342c0,7.208,6.161,8.228,6.423,8.269l2.099,0.315
		l-1.973,0.778c-0.169,0.067-4.113,1.7-4.113,5.699c0,2.749,2.012,3.687,2.098,3.724l1.941,0.878l-2.117,0.214
		c-0.24,0.021-5.829,0.642-5.829,5.549c0,5.711,7.306,6.564,11.663,6.564c3.513,0,6.422-0.401,8.876-1.22
		c7.102-2.364,8.165-7.167,8.165-9.821c0-6.066-4.721-6.845-8.825-6.845l-4.003,0.067c0,0-2.284,0.046-2.289,0.046
		c-1.16,0-3.569,0-3.569-2.723c0-1.432,0.95-2.252,1.062-2.36l0.201-0.152l2.702,0.185c7.267,0,11.437-3.2,11.437-8.771
		c0-2.794-1.521-4.343-1.583-4.408l-1.005-0.979h6.155v-3.728c-1.53,0-11.026-0.015-11.079-0.02
		C272.33,55.261,270.655,54.884,268.533,54.884 M270.914,84.153c2.685,0,4.628,0,5.702,1.069c0.508,0.51,0.758,1.198,0.758,2.106
		c0,2.352-1.456,5.155-8.385,5.155c-3.354,0-7.199-0.507-7.199-4.48c0-2.711,2.53-3.764,2.634-3.808l0.107-0.045h6.383V84.153z
		 M271.39,69.802l-0.014,0.013c-0.72,0.426-1.562,0.645-2.5,0.645c-3.036,0-4.705-2.214-4.705-6.232
		c0-1.973,0.239-4.399,2.146-5.644c0.752-0.454,1.662-0.705,2.561-0.705c3.03,0,4.702,2.192,4.702,6.174
		C273.579,66.082,273.33,68.571,271.39,69.802"/>
	<path fill="#FFFFFF" d="M40.418,21.569c0.091-0.227,1.007-2.634,1.017-2.66c0,0,0.06-0.136,0.06-0.261
		c0-0.049-0.006-0.097-0.035-0.137c-0.032-0.048-0.141-0.067-0.326-0.057h-0.016H38.11c0.038,0.046,1.69,2.281,1.69,2.281
		S40.389,21.527,40.418,21.569 M43.396,26.1c-0.051-0.6-0.843-1.23-1.308-1.553c-0.322-0.223-0.683-0.561-0.898-0.765l-0.165-0.152
		c-0.567-0.496-4.091-5.255-4.769-6.445c-0.192-0.336-0.459-0.38-0.669-0.385c-0.211,0.005-0.479,0.049-0.671,0.385
		c-0.679,1.184-4.203,5.944-4.767,6.445l-0.165,0.152c-0.215,0.205-0.582,0.542-0.9,0.765c-0.809,0.559-1.271,1.111-1.306,1.553
		c-0.007,0.071-0.009,0.142-0.009,0.207c0,0.236,0.037,0.434,0.116,0.605c0.05,0.12,0.146,0.286,0.239,0.444
		c0,0,0.143,0.255,0.161,0.288c0.327-0.342,2.987-2.987,3.298-2.989l0.031,0.009l0.009,0.036c-0.007,0.374-2.669,3.675-2.898,3.898
		c0.014,0.046,0.264,0.79,0.481,1.157c0.208,0.347,0.616,0.695,0.683,0.746c0.107-0.171,2.709-4.347,2.961-4.241l0.021,0.022
		c0.002,0.009,0.002,0.019,0.002,0.031c0,0.368-1.15,2.733-2.139,4.697c0,0-0.062,0.121-0.069,0.136
		c0.047,0.044,0.882,0.824,1.19,0.992c0.32,0.176,0.688,0.28,0.958,0.357c0.074-0.283,1.455-5.334,1.691-5.334l0.018,0.004
		l0.002,0.005c0.022,0.029,0.032,0.127,0.032,0.283c0,1.128-0.509,5.19-0.527,5.355c0.018,0.002,0.261,0.058,0.261,0.058
		l0.498,0.116l0.209,0.062c0.19,0.059,0.383,0.124,0.588,0.137c0.206-0.014,0.4-0.078,0.59-0.137l0.21-0.062l0.495-0.116
		c0,0,0.242-0.056,0.262-0.058c-0.021-0.165-0.528-4.223-0.528-5.35c0-0.161,0.009-0.259,0.033-0.288l0.016-0.009h0.007
		c0.231,0,1.613,5.051,1.688,5.334c0.273-0.077,0.634-0.181,0.958-0.357c0.309-0.168,1.142-0.948,1.19-0.992
		c-0.007-0.016-0.053-0.104-0.053-0.104c-0.993-1.972-2.158-4.356-2.158-4.729c0-0.012,0-0.022,0.002-0.031l0.021-0.022
		c0.251-0.106,2.854,4.069,2.96,4.241c0.069-0.051,0.477-0.398,0.684-0.746c0.219-0.368,0.467-1.111,0.483-1.157
		c-0.227-0.223-2.892-3.523-2.899-3.898l0.011-0.036l0.03-0.009c0.308,0.002,2.966,2.648,3.299,2.989
		c0.018-0.033,0.158-0.288,0.158-0.288c0.093-0.158,0.187-0.324,0.243-0.444c0.076-0.171,0.113-0.371,0.113-0.605
		C43.402,26.242,43.4,26.171,43.396,26.1 M30.754,21.569c0.027-0.042,0.615-0.834,0.615-0.834s1.658-2.235,1.688-2.281h-3.002
		h-0.018c-0.182-0.01-0.29,0.009-0.327,0.057c-0.022,0.04-0.032,0.087-0.032,0.137c0,0.125,0.06,0.261,0.06,0.261
		C29.747,18.935,30.663,21.342,30.754,21.569"/>
	<path fill="#FFFFFF" d="M59.243,21.792c0.089-0.227,1.006-2.634,1.018-2.661c0.002-0.002,0.058-0.133,0.058-0.261
		c0-0.048-0.006-0.097-0.032-0.134c-0.034-0.051-0.143-0.07-0.324-0.06h-0.021h-3.004c0.032,0.043,1.69,2.284,1.69,2.284
		S59.214,21.751,59.243,21.792 M62.219,26.325c-0.049-0.602-0.84-1.232-1.308-1.556c-0.32-0.222-0.683-0.561-0.898-0.765
		l-0.165-0.152c-0.565-0.495-4.088-5.254-4.771-6.445c-0.19-0.333-0.457-0.38-0.666-0.38c-0.211,0-0.477,0.048-0.67,0.38
		c-0.678,1.188-4.201,5.948-4.771,6.445l-0.16,0.152c-0.218,0.204-0.579,0.542-0.901,0.765c-0.81,0.56-1.271,1.11-1.308,1.556
		c-0.006,0.072-0.01,0.138-0.01,0.206c0,0.234,0.037,0.429,0.116,0.604c0.053,0.122,0.148,0.285,0.241,0.445
		c0,0,0.141,0.255,0.16,0.288c0.332-0.341,2.988-2.986,3.299-2.986l0.03,0.009l0.009,0.035c-0.006,0.374-2.669,3.674-2.898,3.897
		c0.016,0.049,0.266,0.792,0.484,1.157c0.208,0.347,0.615,0.692,0.682,0.745c0.107-0.17,2.703-4.347,2.961-4.241l0.021,0.025
		c0.002,0.007,0.002,0.018,0.002,0.027c0,0.366-1.152,2.736-2.141,4.697c0,0-0.058,0.121-0.067,0.138
		c0.047,0.042,0.88,0.821,1.19,0.992c0.319,0.176,0.686,0.28,0.958,0.354c0.074-0.277,1.455-5.328,1.687-5.328l0.019,0.007
		l0.005,0.002c0.022,0.025,0.031,0.123,0.031,0.28c0,1.126-0.506,5.19-0.526,5.354c0.021,0.005,0.259,0.058,0.259,0.058l0.496,0.111
		l0.211,0.069c0.19,0.056,0.384,0.123,0.588,0.138c0.206-0.015,0.399-0.082,0.59-0.138l0.209-0.069l0.496-0.111
		c0,0,0.243-0.052,0.263-0.058c-0.02-0.164-0.527-4.222-0.527-5.349c0-0.16,0.011-0.26,0.031-0.286l0.017-0.009h0.007
		c0.234,0,1.615,5.051,1.687,5.328c0.273-0.074,0.639-0.178,0.956-0.354c0.31-0.171,1.146-0.95,1.192-0.992
		c-0.006-0.017-0.049-0.107-0.049-0.107c-0.997-1.97-2.162-4.354-2.162-4.728c0-0.01,0.002-0.02,0.004-0.027l0.022-0.025
		c0.252-0.106,2.854,4.07,2.96,4.241c0.067-0.053,0.474-0.398,0.684-0.745c0.217-0.365,0.467-1.108,0.483-1.157
		c-0.227-0.223-2.892-3.523-2.897-3.897l0.01-0.035l0.03-0.009c0.308,0,2.966,2.646,3.296,2.986c0.015-0.033,0.16-0.288,0.16-0.288
		c0.092-0.16,0.187-0.323,0.241-0.445c0.076-0.175,0.116-0.371,0.116-0.604C62.229,26.463,62.224,26.396,62.219,26.325
		 M49.575,21.792c0.032-0.04,0.618-0.832,0.618-0.832s1.658-2.241,1.689-2.284h-3.004h-0.018c-0.185-0.011-0.292,0.009-0.325,0.06
		c-0.022,0.037-0.032,0.085-0.032,0.134c0,0.127,0.055,0.259,0.055,0.261C48.568,19.157,49.489,21.564,49.575,21.792"/>
	<path fill="#FFFFFF" d="M21.519,21.792c0.091-0.227,1.01-2.634,1.019-2.661c0-0.002,0.055-0.133,0.055-0.261
		c0-0.048-0.007-0.097-0.033-0.134c-0.032-0.051-0.141-0.07-0.324-0.06h-0.02h-3.004c0.032,0.043,1.689,2.284,1.689,2.284
		S21.491,21.751,21.519,21.792 M24.494,26.325c-0.047-0.602-0.838-1.232-1.308-1.556c-0.32-0.222-0.683-0.561-0.898-0.765
		l-0.165-0.152c-0.566-0.495-4.087-5.254-4.769-6.445c-0.189-0.333-0.457-0.38-0.668-0.38c-0.211,0-0.474,0.048-0.667,0.38
		c-0.68,1.188-4.203,5.948-4.771,6.445l-0.161,0.152c-0.216,0.204-0.58,0.542-0.902,0.765c-0.807,0.56-1.271,1.11-1.305,1.556
		c-0.008,0.072-0.011,0.138-0.011,0.206c0,0.234,0.038,0.429,0.114,0.604c0.053,0.122,0.148,0.285,0.24,0.445
		c0,0,0.142,0.255,0.162,0.288c0.33-0.341,2.987-2.986,3.296-2.986l0.03,0.009l0.009,0.035c-0.004,0.374-2.669,3.674-2.896,3.897
		c0.015,0.049,0.268,0.792,0.485,1.157c0.206,0.347,0.616,0.692,0.68,0.745c0.107-0.17,2.706-4.347,2.964-4.241l0.018,0.025
		c0.004,0.007,0.004,0.018,0.004,0.027c0,0.366-1.154,2.736-2.144,4.697c0,0-0.058,0.121-0.067,0.138
		c0.049,0.042,0.884,0.821,1.192,0.992c0.317,0.176,0.686,0.28,0.956,0.354c0.074-0.277,1.454-5.328,1.689-5.328l0.02,0.007
		l0.002,0.002c0.022,0.025,0.032,0.123,0.032,0.28c0,1.126-0.506,5.19-0.528,5.354c0.022,0.005,0.262,0.058,0.262,0.058l0.495,0.111
		l0.211,0.069c0.187,0.056,0.381,0.123,0.585,0.138c0.208-0.015,0.402-0.082,0.589-0.138l0.213-0.069l0.495-0.111
		c0,0,0.24-0.052,0.262-0.058c-0.022-0.164-0.528-4.222-0.528-5.349c0-0.16,0.009-0.26,0.032-0.286l0.015-0.009h0.007
		c0.234,0,1.616,5.051,1.692,5.328c0.269-0.074,0.634-0.178,0.954-0.354c0.31-0.171,1.146-0.95,1.192-0.992
		c-0.006-0.017-0.051-0.107-0.051-0.107c-0.996-1.97-2.16-4.354-2.16-4.728c0-0.01,0.002-0.02,0.002-0.027l0.021-0.025
		c0.253-0.106,2.856,4.07,2.96,4.241c0.07-0.053,0.477-0.398,0.684-0.745c0.217-0.365,0.467-1.108,0.483-1.157
		c-0.227-0.223-2.892-3.523-2.896-3.897l0.01-0.035l0.032-0.009c0.308,0,2.966,2.646,3.294,2.986
		c0.018-0.033,0.162-0.288,0.162-0.288c0.092-0.16,0.186-0.323,0.239-0.445c0.078-0.175,0.118-0.371,0.118-0.604
		C24.505,26.463,24.503,26.396,24.494,26.325 M11.854,21.792c0.029-0.04,0.615-0.832,0.615-0.832s1.658-2.241,1.69-2.284h-3.007
		h-0.02c-0.18-0.011-0.288,0.009-0.322,0.06c-0.024,0.037-0.035,0.085-0.035,0.134c0,0.127,0.058,0.259,0.058,0.261
		C10.845,19.157,11.765,21.564,11.854,21.792"/>
	<polyline fill="#FFFFFF" points="40.227,53.588 40.231,53.59 40.238,53.6 40.227,53.588 	"/>
	<path fill="#FFFFFF" d="M35.591,61.498c-0.871,0-1.576-0.699-1.576-1.565c0-0.861,0.706-1.56,1.576-1.56
		c0.868,0,1.574,0.699,1.574,1.56C37.166,60.799,36.459,61.498,35.591,61.498"/>
</g>
</svg>
