<?xml version="1.0" encoding="utf-8"?>
<!-- Generator: Adobe Illustrator 16.0.4, SVG Export Plug-In . SVG Version: 6.00 Build 0)  -->
<!DOCTYPE svg PUBLIC "-//W3C//DTD SVG 1.1//EN" "http://www.w3.org/Graphics/SVG/1.1/DTD/svg11.dtd">
<svg version="1.1" id="Layer_1" xmlns="http://www.w3.org/2000/svg" xmlns:xlink="http://www.w3.org/1999/xlink" x="0px" y="0px"
	 width="36px" height="36px" viewBox="0.5 36.5 36 36" enable-background="new 0.5 36.5 36 36" xml:space="preserve">
<g id="Layer_1_1_">
	<circle fill="#FF8000" cx="18.5" cy="54.5" r="18"/>
</g>
<g id="Layer_2">
	<path fill="#FFFFFF" d="M7.593,44.675c0,0,0.568-0.927,1.338-0.927s5.298,0,5.298,0l0.566,0.668l0.051,0.978l0.617,2.367
		c0,0,0.222,0.727,0.412,1.234c0.189,0.508-0.052,1.081-0.052,1.081l-2.367,2.623l-0.051,0.104c0,0,0.725,1.641,2.881,3.756
		c2.157,2.112,4.322,3.139,4.322,3.139s2.73-2.559,2.828-2.625c0.098-0.065,0.361,0,0.361,0s1.668,0.647,2.161,0.721
		c0.492,0.073,2.717,0.322,2.933,0.463c0.215,0.141,0.463,0.721,0.463,0.721s0.06,4.509,0.052,4.938
		c-0.083,0.201-0.291,0.938-0.309,1.029c-0.018,0.091-0.721,0.309-0.721,0.309L26.371,65.2c0,0-6.802-0.62-12.398-6.02
		c-5.598-5.397-6.277-12.707-6.277-12.707L7.593,44.675z"/>
</g>
</svg>
