<?xml version="1.0" encoding="utf-8"?>
<!-- Generator: Adobe Illustrator 19.2.1, SVG Export Plug-In . SVG Version: 6.00 Build 0)  -->
<svg version="1.1" id="Layer_1" xmlns="http://www.w3.org/2000/svg" xmlns:xlink="http://www.w3.org/1999/xlink" x="0px" y="0px"
	 viewBox="0 0 36 36" style="enable-background:new 0 0 36 36;" xml:space="preserve">
<style type="text/css">
	.st0{fill:#FF8000;}
	.st1{fill:#FFFFFF;}
</style>
<g id="Layer_1_1_">
	<circle class="st0" cx="18" cy="18" r="18"/>
</g>
<g id="Layer_2">
	<g>
		<path class="st1" d="M11.7,19.9L11.7,19.9l-1.6,0l0-4.2h1.6h0v-4h3.9v4h1.8v4.2h-1.8c0,0.8,0.1,1.4,0.4,1.7
			c0.3,0.3,0.7,0.5,1.4,0.5v4.1c-0.2,0-0.4,0-0.5,0c-0.9,0-1.7-0.2-2.5-0.6c-0.8-0.4-1.4-1-1.9-1.7c-0.6-0.9-0.9-2.1-0.9-3.6
			L11.7,19.9"/>
		<path class="st1" d="M25.9,15.7v4.1c-0.5,0-0.9,0.1-1.1,0.3c-0.2,0.2-0.3,0.6-0.4,1.2c-0.2,2-0.9,3.5-2.3,4.3
			c-0.7,0.4-1.7,0.6-3.1,0.6h-0.5v-4.2h0.2c0.6,0,1.1-0.1,1.3-0.4c0.3-0.3,0.4-0.7,0.5-1.4c0.1-1.1,0.1-1.8,0.3-2.3
			c0.1-0.4,0.4-0.9,0.9-1.3c0.8-0.8,1.8-1.1,3.1-1.1C24.8,15.7,25.9,15.7,25.9,15.7z"/>
		<path class="st1" d="M18,8.6l8.6,0.6c0,0,0.6,12.4,0.5,15.1c-0.1,3-8.3,4.6-9.1,4.9c-0.8-0.3-8.9-2.2-8.9-5
			c0-2.8,0.3-15.1,0.3-15.1L18,8.6z M18,6L7.1,7.1C6.3,21.6,6.5,21.8,6.5,24.6c0,4,10.7,7.5,11.5,7.8l0,0c0.8-0.3,11.6-3.7,11.6-7.7
			c0-3.1-0.7-17.3-0.7-17.3L18,6z"/>
	</g>
</g>
</svg>
