<?xml version="1.0" encoding="utf-8"?>
<!-- Generator: Adobe Illustrator 16.0.4, SVG Export Plug-In . SVG Version: 6.00 Build 0)  -->
<!DOCTYPE svg PUBLIC "-//W3C//DTD SVG 1.1//EN" "http://www.w3.org/Graphics/SVG/1.1/DTD/svg11.dtd">
<svg version="1.1" xmlns="http://www.w3.org/2000/svg" xmlns:xlink="http://www.w3.org/1999/xlink" x="0px" y="0px" width="36px"
	 height="36px" viewBox="0 0 36 36" enable-background="new 0 0 36 36" xml:space="preserve">
<g id="Layer_1">
	<circle fill="#FF8000" cx="18" cy="18" r="18"/>
</g>
<g id="Layer_2">
	<g>
		<path fill="#FFFFFF" d="M11.724,19.943L11.724,19.943l-1.579,0.001l0.023-4.159h1.565h-0.009v-4.022h3.938v4.022h1.769v4.159
			h-1.769c0,0.836,0.132,1.411,0.395,1.729c0.263,0.315,0.746,0.472,1.448,0.472v4.139c-0.204,0.006-0.355,0.01-0.454,0.01
			c-0.891,0-1.731-0.207-2.521-0.622c-0.789-0.413-1.422-0.976-1.9-1.683c-0.604-0.907-0.905-2.106-0.905-3.602V19.943"/>
		<path fill="#FFFFFF" d="M25.949,15.681v4.149c-0.54,0-0.912,0.104-1.115,0.311c-0.198,0.207-0.327,0.615-0.381,1.229
			c-0.178,2.027-0.943,3.458-2.297,4.295c-0.718,0.436-1.733,0.65-3.053,0.65h-0.532v-4.168h0.173c0.616,0,1.055-0.132,1.317-0.395
			c0.264-0.265,0.416-0.723,0.457-1.385c0.054-1.074,0.149-1.828,0.292-2.264c0.138-0.436,0.423-0.867,0.854-1.295
			c0.75-0.751,1.793-1.127,3.127-1.127H25.949z"/>
		<path fill="#FFFFFF" d="M17.961,8.576l8.589,0.577c0,0,0.562,12.383,0.499,15.107c-0.067,2.95-8.262,4.593-9.087,4.868
			c-0.824-0.275-8.886-2.197-8.886-4.967c0-2.768,0.294-15.101,0.294-15.101L17.961,8.576z M17.963,6L7.132,7.14
			C6.291,21.62,6.453,21.757,6.453,24.573c0,3.981,10.686,7.478,11.51,7.753l0,0c0.825-0.275,11.597-3.743,11.597-7.656
			c0-3.069-0.737-17.333-0.737-17.333L17.963,6z"/>
	</g>
</g>
</svg>
