<?xml version="1.0" encoding="utf-8"?>
<!-- Generator: Adobe Illustrator 16.0.4, SVG Export Plug-In . SVG Version: 6.00 Build 0)  -->
<!DOCTYPE svg PUBLIC "-//W3C//DTD SVG 1.1//EN" "http://www.w3.org/Graphics/SVG/1.1/DTD/svg11.dtd">
<svg version="1.1" xmlns="http://www.w3.org/2000/svg" xmlns:xlink="http://www.w3.org/1999/xlink" x="0px" y="0px" width="36px"
	 height="36px" viewBox="0 0 36 36" enable-background="new 0 0 36 36" xml:space="preserve">
<g id="Layer_1">
	<circle fill="#FF8000" cx="18" cy="18" r="18"/>
</g>
<g id="Layer_2">
	<g>
		<g>
			<path fill="#FFFFFF" d="M30,26.658c0,1.977-1.671,3.576-3.732,3.576H9.735c-2.063,0-3.735-1.6-3.735-3.576V9.342
				c0-1.975,1.672-3.576,3.735-3.576h16.532C28.329,5.766,30,7.367,30,9.342V26.658z"/>
		</g>
		<g>
			<polygon fill="#FF8000" points="12.011,16.979 11.799,21.512 7.841,17.867 			"/>
		</g>
		<g>
			<g>
				<path fill="#FF8000" d="M14.197,19.606v4.469h2.437v1.335h-4.001v-5.804H14.197z"/>
				<path fill="#FF8000" d="M21.249,22.43v0.025c0.338,0.051,0.581,0.163,0.731,0.336c0.195,0.224,0.294,0.569,0.294,1.037
					c0,0.363-0.053,0.646-0.158,0.851c-0.181,0.354-0.501,0.583-0.961,0.685c-0.266,0.06-0.68,0.09-1.241,0.09
					c-0.439,0-0.767-0.016-0.982-0.047c-0.383-0.057-0.685-0.172-0.906-0.345c-0.311-0.247-0.467-0.657-0.467-1.233
					c0-0.416,0.068-0.727,0.204-0.931c0.156-0.235,0.43-0.383,0.82-0.442V22.43c-0.298-0.085-0.496-0.17-0.595-0.256
					c-0.232-0.195-0.349-0.531-0.349-1.008c0-0.553,0.145-0.958,0.433-1.216c0.21-0.187,0.502-0.305,0.877-0.353
					c0.167-0.022,0.488-0.034,0.965-0.034c0.681,0,1.136,0.038,1.365,0.115c0.609,0.204,0.914,0.7,0.914,1.487
					c0,0.477-0.116,0.812-0.349,1.008C21.742,22.26,21.544,22.345,21.249,22.43z M19.918,23.012c-0.349,0-0.563,0.019-0.646,0.056
					c-0.156,0.067-0.234,0.245-0.234,0.531c0,0.301,0.075,0.487,0.226,0.562c0.085,0.042,0.308,0.063,0.667,0.063
					c0.338,0,0.551-0.021,0.639-0.063c0.149-0.074,0.225-0.254,0.225-0.54c0-0.295-0.073-0.478-0.221-0.549
					C20.491,23.032,20.272,23.012,19.918,23.012z M19.918,20.745c-0.365,0-0.59,0.036-0.674,0.108
					c-0.083,0.072-0.125,0.215-0.125,0.428c0,0.366,0.11,0.562,0.331,0.591c0.068,0.009,0.238,0.013,0.511,0.013
					c0.329,0,0.528-0.029,0.6-0.089c0.102-0.085,0.153-0.255,0.153-0.511c0-0.255-0.071-0.416-0.213-0.484
					C20.419,20.764,20.225,20.745,19.918,20.745z"/>
				<path fill="#FF8000" d="M23.175,25.41v-5.804h2.93c0.607,0,1.039,0.059,1.297,0.178c0.31,0.143,0.521,0.364,0.639,0.668
					c0.09,0.229,0.136,0.544,0.136,0.944c0,0.771-0.131,1.263-0.392,1.476c-0.127,0.102-0.362,0.193-0.706,0.276v0.063
					c0.7,0.037,1.051,0.417,1.051,1.14v1.059h-1.586v-0.773c0-0.514-0.217-0.771-0.649-0.771H24.74v1.544H23.175z M24.74,22.553
					h1.229c0.312,0,0.497-0.088,0.557-0.265c0.036-0.11,0.055-0.329,0.055-0.656c0-0.284-0.043-0.471-0.129-0.559
					c-0.087-0.088-0.271-0.132-0.554-0.132H24.74V22.553z"/>
			</g>
			<g>
				<path fill="#FF8000" d="M14.197,19.606v4.469h2.437v1.335h-4.001v-5.804H14.197z"/>
				<path fill="#FF8000" d="M21.249,22.43v0.025c0.338,0.051,0.581,0.163,0.731,0.336c0.195,0.224,0.294,0.569,0.294,1.037
					c0,0.363-0.053,0.646-0.158,0.851c-0.181,0.354-0.501,0.583-0.961,0.685c-0.266,0.06-0.68,0.09-1.241,0.09
					c-0.439,0-0.767-0.016-0.982-0.047c-0.383-0.057-0.685-0.172-0.906-0.345c-0.311-0.247-0.467-0.657-0.467-1.233
					c0-0.416,0.068-0.727,0.204-0.931c0.156-0.235,0.43-0.383,0.82-0.442V22.43c-0.298-0.085-0.496-0.17-0.595-0.256
					c-0.232-0.195-0.349-0.531-0.349-1.008c0-0.553,0.145-0.958,0.433-1.216c0.21-0.187,0.502-0.305,0.877-0.353
					c0.167-0.022,0.488-0.034,0.965-0.034c0.681,0,1.136,0.038,1.365,0.115c0.609,0.204,0.914,0.7,0.914,1.487
					c0,0.477-0.116,0.812-0.349,1.008C21.742,22.26,21.544,22.345,21.249,22.43z M19.918,23.012c-0.349,0-0.563,0.019-0.646,0.056
					c-0.156,0.067-0.234,0.245-0.234,0.531c0,0.301,0.075,0.487,0.226,0.562c0.085,0.042,0.308,0.063,0.667,0.063
					c0.338,0,0.551-0.021,0.639-0.063c0.149-0.074,0.225-0.254,0.225-0.54c0-0.295-0.073-0.478-0.221-0.549
					C20.491,23.032,20.272,23.012,19.918,23.012z M19.918,20.745c-0.365,0-0.59,0.036-0.674,0.108
					c-0.083,0.072-0.125,0.215-0.125,0.428c0,0.366,0.11,0.562,0.331,0.591c0.068,0.009,0.238,0.013,0.511,0.013
					c0.329,0,0.528-0.029,0.6-0.089c0.102-0.085,0.153-0.255,0.153-0.511c0-0.255-0.071-0.416-0.213-0.484
					C20.419,20.764,20.225,20.745,19.918,20.745z"/>
				<path fill="#FF8000" d="M23.175,25.41v-5.804h2.93c0.607,0,1.039,0.059,1.297,0.178c0.31,0.143,0.521,0.364,0.639,0.668
					c0.09,0.229,0.136,0.544,0.136,0.944c0,0.771-0.131,1.263-0.392,1.476c-0.127,0.102-0.362,0.193-0.706,0.276v0.063
					c0.7,0.037,1.051,0.417,1.051,1.14v1.059h-1.586v-0.773c0-0.514-0.217-0.771-0.649-0.771H24.74v1.544H23.175z M24.74,22.553
					h1.229c0.312,0,0.497-0.088,0.557-0.265c0.036-0.11,0.055-0.329,0.055-0.656c0-0.284-0.043-0.471-0.129-0.559
					c-0.087-0.088-0.271-0.132-0.554-0.132H24.74V22.553z"/>
			</g>
		</g>
		<g>
			<path fill="#FF8000" d="M28.411,18.234c0,0.33-0.322,0.596-0.721,0.596H8.27c-0.397,0-0.72-0.266-0.72-0.596v-6.867
				c0-0.331,0.323-0.598,0.72-0.598h19.42c0.398,0,0.721,0.267,0.721,0.598V18.234z"/>
		</g>
		<g>
			<g>
				<path fill="#FF8000" d="M10.849,13.118v4.214H9.374v-4.214H7.991v-1.259h4.334v1.259H10.849z"/>
				<path fill="#FF8000" d="M14.593,13.062v0.986h2.329v1.015h-2.329v1.066h2.538v1.203h-4.013v-5.473h3.965v1.203H14.593z"/>
				<path fill="#FF8000" d="M23.207,11.859l-1.543,2.654l1.627,2.818h-1.688l-1.07-2.213h-0.021l-0.132,0.276l-0.128,0.277
					l-0.818,1.66H17.71l1.644-2.818l-1.54-2.654h1.708l0.975,2.009h0.02l0.241-0.501l0.745-1.508H23.207z"/>
				<path fill="#FF8000" d="M26.485,13.118v4.214H25.01v-4.214h-1.383v-1.259h4.334v1.259H26.485z"/>
			</g>
			<g>
				<path fill="#FFFFFF" d="M10.849,13.118v4.214H9.374v-4.214H7.991v-1.259h4.334v1.259H10.849z"/>
				<path fill="#FFFFFF" d="M14.593,13.062v0.986h2.329v1.015h-2.329v1.066h2.538v1.203h-4.013v-5.473h3.965v1.203H14.593z"/>
				<path fill="#FFFFFF" d="M23.207,11.859l-1.543,2.654l1.627,2.818h-1.688l-1.07-2.213h-0.021l-0.132,0.276l-0.128,0.277
					l-0.818,1.66H17.71l1.644-2.818l-1.54-2.654h1.708l0.975,2.009h0.02l0.241-0.501l0.745-1.508H23.207z"/>
				<path fill="#FFFFFF" d="M26.485,13.118v4.214H25.01v-4.214h-1.383v-1.259h4.334v1.259H26.485z"/>
			</g>
		</g>
	</g>
</g>
</svg>
