<?xml version="1.0" encoding="utf-8"?>
<!-- Generator: Adobe Illustrator 16.0.4, SVG Export Plug-In . SVG Version: 6.00 Build 0)  -->
<!DOCTYPE svg PUBLIC "-//W3C//DTD SVG 1.1//EN" "http://www.w3.org/Graphics/SVG/1.1/DTD/svg11.dtd">
<svg version="1.1" id="Layer_2" xmlns="http://www.w3.org/2000/svg" xmlns:xlink="http://www.w3.org/1999/xlink" x="0px" y="0px"
	 width="300px" height="100px" viewBox="0 0 300 100" enable-background="new 0 0 300 100" xml:space="preserve">
<g>
	<path fill="#FFFFFF" d="M97.074,42.028h-16.35v-1.062c5.095-0.228,5.264-1.513,5.264-5.66V7.314h-3.021
		c-6.162,0-7.672,1.062-8.905,7.169h-1.343l0.336-9.524h31.579l0.335,9.524h-1.344c-1.177-6.164-2.744-7.169-8.902-7.169h-3.024
		v28.609c0,3.807,0.671,4.872,5.375,5.043L97.074,42.028L97.074,42.028z"/>
	<path fill="#FFFFFF" d="M122.931,40.015c-3.025,0.78-5.154,1.566-7.784,2.517l-0.112-0.111v-4.647l-2.408,2.405
		c-2.181,2.181-4.87,2.412-5.878,2.412c-2.298,0-6.663-1.347-6.663-7.286V21.199c0-3.361-1.791-3.472-3.47-3.584v-0.783h8.175
		v18.255c0,0.78,0.502,4.253,4.198,4.253c1.679,0,3.359-0.786,4.871-2.016c0.505-0.444,0.896-1.007,0.896-2.855V21.313
		c0-2.243-0.224-3.416-4.143-3.528v-0.954h8.845v19.206c0,2.013,0.111,3.302,3.473,3.189V40.015L122.931,40.015z"/>
	<path fill="#FFFFFF" d="M121.922,41.188c3.303-0.222,4.312-0.954,4.312-4.029v-26.71c0-2.52-0.336-3.416-2.518-3.416
		c-0.729,0-1.232,0.06-1.905,0.113V6.25c2.968-0.729,5.934-1.509,8.904-2.463l0.222,0.111v33.426c0,3.248,0.952,3.693,4.2,3.864
		v0.841h-13.214L121.922,41.188L121.922,41.188z"/>
	<path fill="#FFFFFF" d="M157.701,39.787c-2.352,2.745-4.09,2.805-4.985,2.805c-1.008,0-3.357-0.06-3.64-4.091
		c-2.07,1.849-5.037,4.091-8.117,4.091c-3.022,0-5.937-2.078-5.937-5.825c0-5.599,4.872-7.505,13.997-11.089v-3.416
		c0-4.029-2.63-4.647-4.31-4.647c-1.847,0-3.976,1.008-3.976,2.741c0,0.843,0.28,1.686,0.28,2.187c0,1.174-1.064,2.409-2.519,2.409
		c-1.736,0-2.41-1.571-2.41-2.465c0-2.241,2.633-6.214,9.127-6.214c8.344,0,8.344,5.6,8.344,8.959v10.918
		c0,1.626,0,3.249,1.622,3.249c1.178,0,1.905-0.561,2.522-1.065V39.787z M149.02,27.024c-8.453,2.801-9.069,5.936-9.069,7.835v0.113
		c0,2.631,1.625,4.368,3.696,4.368c1.231,0,2.965-0.731,3.472-1.008c1.735-0.84,1.901-1.511,1.901-3.194V27.024z"/>
	<path fill="#FFFFFF" d="M161.172,23.104c0-3.528-1.063-3.584-1.96-3.584c-0.786,0-1.399,0.111-1.625,0.225v-0.951
		c2.521-0.729,5.151-1.569,7.728-2.522l0.391,0.114v4.424c2.742-2.577,4.87-4.538,8.173-4.538c2.576,0,6.552,1.515,6.552,8.398
		v12.823c0,2.631,0.674,3.473,3.416,3.696v0.839h-11.646v-0.84c2.072-0.171,3.529-0.45,3.529-4.703v-11.7
		c0-3.418-1.01-5.434-4.312-5.434c-1.68,0-3.414,1.122-5.543,3.191v15.732c0,1.848,0.783,2.743,3.696,2.914v0.84h-11.872v-0.84
		c2.631-0.171,3.474-0.894,3.474-4.2V23.104z"/>
	<path fill="#FFFFFF" d="M205.845,33.234c-0.562,1.738-3.808,9.357-11.873,9.357c-6.211,0-10.468-4.598-10.468-12.547
		c0-10.357,6.944-13.773,11.422-13.773c5.263,0,9.238,2.912,9.856,10.25h-17.415c0.67,9.907,5.207,12.205,8.904,12.205
		c4.98,0,7.387-3.809,8.676-5.879L205.845,33.234z M199.071,24.727c-0.394-2.685-0.954-6.438-5.375-6.438
		c-3.08,0-5.263,1.51-6.157,6.438H199.071z"/>
	<path fill="#FFFFFF" d="M119.57,49.292c-4.311,0.45-5.262,1.29-5.262,7.168v14.615c0,4.476,0,15.003-14.501,15.003
		c-13.887,0-13.887-10.919-13.887-14.275V54.331c0-4.14-0.784-4.761-5.04-5.04v-1.064h15.845v1.064
		c-4.423,0.339-5.094,1.068-5.094,5.04V72.25c0,3.582,0,11.366,9.742,11.366c4.367,0,7.559-1.794,9.183-4.426
		c0.728-1.229,1.286-3.077,1.286-7.618V56.46c0-5.993-1.342-6.943-5.263-7.168v-1.065h12.99v1.065H119.57z"/>
	<path fill="#FFFFFF" d="M119.625,66.371c0-3.528-1.065-3.585-1.958-3.585c-0.786,0-1.402,0.112-1.626,0.225v-0.95
		c2.519-0.729,5.151-1.568,7.728-2.522l0.393,0.114v4.424c2.743-2.577,4.87-4.538,8.172-4.538c2.577,0,6.554,1.515,6.554,8.399
		v12.823c0,2.631,0.669,3.474,3.414,3.695v0.841h-11.647v-0.841c2.072-0.169,3.527-0.449,3.527-4.702V68.052
		c0-3.417-1.005-5.434-4.31-5.434c-1.682,0-3.417,1.121-5.542,3.191v15.732c0,1.848,0.783,2.742,3.693,2.914v0.84h-11.869v-0.84
		c2.63-0.17,3.472-0.894,3.472-4.2V66.371L119.625,66.371z"/>
	<path fill="#FFFFFF" d="M142.241,84.456c3.479-0.17,4.43-0.507,4.43-4.871V66.594c0-3.299-1.064-3.357-1.961-3.357
		c-0.783,0-1.514,0.108-2.239,0.223v-0.84c2.911-0.953,5.766-2.013,8.676-3.081l0.224,0.167v19.879c0,3.698,0.281,4.648,4.146,4.871
		v0.84H142.24L142.241,84.456L142.241,84.456z M148.517,47.054c1.68,0,2.913,1.287,2.913,2.855c0,1.624-1.233,2.856-2.913,2.856
		c-2.016,0-2.796-1.793-2.796-2.856C145.72,48.84,146.555,47.054,148.517,47.054z"/>
	<path fill="#FFFFFF" d="M178.442,60.939c-1.903,0.166-2.294,1.065-3.642,4.37l-7.163,17.974c-0.618,1.509-1.122,2.795-1.514,2.795
		c-0.504,0-0.616-0.218-1.512-2.631c-1.343-3.473-6.716-16.463-8.735-20.436c-0.836-1.68-1.959-2.018-3.078-2.073v-0.839h10.973
		v0.839c-1.347,0.115-2.577,0.283-2.577,1.681c0,0.675,0.339,1.508,0.507,1.962l5.711,14.331c1.904-5.375,5.876-14.109,5.876-16.125
		c0-1.286-1.226-1.793-2.63-1.847V60.1h7.783L178.442,60.939L178.442,60.939z"/>
	<path fill="#FFFFFF" d="M198.104,76.501c-0.56,1.738-3.808,9.358-11.87,9.358c-6.214,0-10.472-4.6-10.472-12.547
		c0-10.357,6.941-13.773,11.423-13.773c5.264,0,9.235,2.912,9.855,10.25h-17.417c0.67,9.906,5.207,12.204,8.905,12.204
		c4.981,0,7.39-3.809,8.676-5.878L198.104,76.501z M191.327,67.995c-0.393-2.686-0.953-6.438-5.375-6.438
		c-3.077,0-5.26,1.511-6.16,6.438H191.327z"/>
	<path fill="#FFFFFF" d="M200.452,66.594c0-3.299-1.065-3.357-1.959-3.357c-0.789,0-1.401,0.108-1.903,0.223v-0.897
		c2.74-0.896,5.542-1.902,8.286-3.023l0.279,0.113v4.984h0.114c2.631-3.975,4.529-5.097,6.662-5.097
		c1.905,0,3.026,1.176,3.026,3.023c0,1.402-0.786,2.466-2.132,2.466c-1.958,0-2.52-1.962-3.863-1.962
		c-1.345,0-3.808,2.802-3.808,4.592v12.598c0,3.861,1.901,4.088,4.757,4.2v0.84h-13.438v-0.84c3.084-0.562,3.978-0.729,3.978-3.864
		V66.594H200.452z"/>
	<path fill="#FFFFFF" d="M229.371,67.715c-1.23-5.712-3.75-6.888-6.215-6.888c-3.078,0-4.252,2.184-4.252,3.638
		c0,1.121,0.335,2.745,2.408,3.974l6.047,3.585c2.741,1.679,4.704,3.245,4.704,6.608c0,4.868-4.537,7.225-8.122,7.225
		c-2.519,0-4.925-1.066-6.493-1.011c-0.675,0-0.896,0.168-1.232,0.672h-0.732v-8.734h0.902c0.666,2.967,1.731,7.838,7.22,7.838
		c1.904,0,4.535-0.896,4.535-4.085c0-1.794-1.118-3.135-2.913-4.149l-3.247-1.842c-3.472-1.964-6.55-4.036-6.55-8.176
		c0-3.135,2.409-6.833,7.836-6.833c2.466,0,4.198,1.122,5.153,1.122c0.505,0,0.786-0.391,0.951-0.617h0.617l0.222,7.672H229.371
		L229.371,67.715z"/>
	<path fill="#FFFFFF" d="M231.894,84.456c3.468-0.17,4.421-0.507,4.421-4.871V66.594c0-3.299-1.065-3.357-1.963-3.357
		c-0.785,0-1.51,0.108-2.237,0.223v-0.84c2.911-0.953,5.767-2.013,8.678-3.081l0.227,0.167v19.879c0,3.698,0.279,4.648,4.138,4.871
		v0.84h-13.263V84.456L231.894,84.456z M238.166,47.054c1.674,0,2.907,1.287,2.907,2.855c0,1.624-1.233,2.856-2.907,2.856
		c-2.021,0-2.804-1.793-2.804-2.856C235.362,48.84,236.203,47.054,238.166,47.054z"/>
	<path fill="#FFFFFF" d="M256.111,61.89h-5.661v16.017c0,1.73,0,5.036,2.857,5.036c1.793,0,2.804-1.234,3.416-1.96l0.729,0.616
		c-1.341,2.406-3.974,4.259-6.551,4.259c-2.854,0-5.149-1.515-5.149-7.114V61.89h-2.973c-0.108-0.057-0.219-0.225-0.219-0.39
		c0-0.672,1.229-1.009,2.46-2.242c2.128-2.183,2.97-3.419,5.041-6.382c0.392,0,0.392,0.279,0.392,0.729V60.1h5.66v1.791H256.111z"/>
	<path fill="#FFFFFF" d="M282.703,60.939c-0.73,0.114-1.845,0.225-2.686,2.52l-8.622,22.845c-2.859,7.498-5.323,11.195-9.521,11.195
		c-2.796,0-4.087-1.792-4.087-3.244c0-0.339,0.113-2.466,2.689-2.466c1.511,0,3.251,1.011,3.974,1.011
		c2.913,0,5.153-7.732,5.153-8.625c0-0.84-2.689-5.992-3.476-7.724l-6.379-13.772c-0.673-1.406-2.132-1.685-2.855-1.795V60.1h11.531
		v0.839c-1.291,0.054-3.249,0.114-3.249,1.623c0,0.732,0.395,1.626,0.564,2.019l6.434,14.163l4.369-12.43
		c0.559-1.512,1.29-3.303,1.29-3.807c0-1.065-0.898-1.625-2.688-1.568V60.1h7.558V60.939L282.703,60.939z"/>
</g>
<path fill="none" stroke="#FFFFFF" stroke-width="0.8111" d="M3.508,4.792l0.009,19.474L3.526,55.3
	c0,11.092,0.732,14.425,7.246,22.083c6.514,7.655,23.186,13.84,23.186,13.84s16.656-6.185,23.174-13.84
	c6.515-7.658,7.239-10.991,7.239-22.083l0.016-31.034L64.39,4.792c0,0-7.502,4.466-15.138,3.905
	c-8.659-0.636-15.295-4.049-15.295-4.049s-6.652,3.413-15.308,4.049C11.009,9.259,3.508,4.792,3.508,4.792z"/>
<path fill="#FFFFFF" stroke="#FFFFFF" stroke-width="0.6161" d="M33.918,59.701c-2.125,0-8.819,0.631-13.549-4.099
	c-1.259-1.339-2.762-4.193-2.762-9.006c0-4.812,0-14.483,0-14.483s0.526-8.852-2.68-10.333l0.247-1.213
	c0,0,9.748-1.589,12.044-2.763l0.671,3.733c0,0-4.771,0.351-4.771,6.099c0.035-0.034,0.019,16.646,0.019,16.646
	s-0.06,2.807,0.627,4.592c0.962,2.493,2.521,3.602,10.122,3.602h0.059c7.6,0,9.157-1.107,10.119-3.602
	c0.688-1.785,0.63-4.592,0.63-4.592s-0.016-16.679,0.017-16.646c0-5.748-4.768-6.099-4.768-6.099l0.669-3.733
	c2.3,1.173,12.047,2.763,12.047,2.763l0.248,1.213c-3.207,1.482-2.677,10.333-2.677,10.333s0,9.67,0,14.483
	c0,4.813-1.51,7.667-2.768,9.006c-4.725,4.729-11.42,4.099-13.546,4.099 M5.504,8.234l0.008,17.218l0.008,29.209
	c0,10.44,0.483,13.782,6.613,20.989c6.132,7.207,21.824,13.028,21.824,13.028s15.675-5.821,21.809-13.028
	c6.13-7.207,6.442-10.343,6.442-20.783l0.017-29.209l0.003-17.147c0,0-6.69,3.023-13.877,2.493
	c-8.15-0.599-14.394-3.812-14.394-3.812c0.001,0-6.427,3.224-14.409,3.812C12.358,11.535,5.504,8.234,5.504,8.234z M33.916,27.094
	c14.184,0,21.07,1.82,21.07,1.82l2.971,10.669l-3.268,1.885l-4.933-7.156c-6.024-0.867-12.22-0.815-12.22-0.815l-0.044,28.278
	c0,2.355,0.448,3.959,2.689,3.959c0.032,0,4.164,0,4.164,0v6.931H33.872h0.09h-10.48v-6.93c0,0,4.14,0,4.17,0
	c2.241,0,2.688-1.604,2.688-3.959l-0.043-28.278c0,0-6.197-0.052-12.215,0.814l-4.939,7.156l-3.265-1.885l2.974-10.669
	c0,0,6.878-1.82,21.067-1.82L33.916,27.094L33.916,27.094z M37.132,52.902h-6.469v6.469h6.469V52.902z M50.02,28.341l-5.025-0.52
	v5.699l4.754,0.462L50.02,28.341z M18.081,33.983l4.753-0.462v-5.699l-5.025,0.52L18.081,33.983z"/>
</svg>
