<?xml version="1.0" encoding="utf-8"?>
<!-- Generator: Adobe Illustrator 16.0.4, SVG Export Plug-In . SVG Version: 6.00 Build 0)  -->
<!DOCTYPE svg PUBLIC "-//W3C//DTD SVG 1.1//EN" "http://www.w3.org/Graphics/SVG/1.1/DTD/svg11.dtd">
<svg version="1.1" id="Layer_1" xmlns="http://www.w3.org/2000/svg" xmlns:xlink="http://www.w3.org/1999/xlink" x="0px" y="0px"
	 width="36px" height="36px" viewBox="0.5 36.5 36 36" enable-background="new 0.5 36.5 36 36" xml:space="preserve">
<g id="Layer_1_1_">
	<circle fill="#FF8000" cx="18.5" cy="54.5" r="18"/>
</g>
<path fill="#FFFFFF" d="M18.51,46.066c6.541,0,11.845,3.623,11.845,8.09c0,2.388-1.516,4.534-3.923,6.015
	c0.604,0.983,2.715,4.303,2.715,4.303s-3.619-2.263-5.128-3.153c-1.646,0.591-3.52,0.926-5.509,0.926
	c-6.541,0-11.843-3.621-11.843-8.09C6.667,49.689,11.969,46.066,18.51,46.066z"/>
<g>
	<path fill="#FF8000" d="M18.089,51.033v4.768c0,0.82-0.272,1.462-0.815,1.926c-0.543,0.463-1.249,0.695-2.116,0.695
		c-0.864,0-1.565-0.232-2.104-0.695c-0.539-0.464-0.808-1.105-0.808-1.926v-4.768h1.466v4.768c0,0.486,0.13,0.858,0.39,1.115
		s0.612,0.385,1.056,0.385c0.45,0,0.807-0.128,1.07-0.385c0.263-0.257,0.395-0.629,0.395-1.115v-4.768H18.089z"/>
	<path fill="#FF8000" d="M24.816,55.905l0.01,0.03c0.014,0.777-0.224,1.386-0.71,1.825c-0.487,0.44-1.159,0.661-2.017,0.661
		c-0.873,0-1.578-0.281-2.115-0.844c-0.537-0.562-0.806-1.287-0.806-2.178v-1.446c0-0.887,0.262-1.612,0.785-2.178
		s1.211-0.848,2.062-0.848c0.887,0,1.58,0.217,2.08,0.649c0.501,0.434,0.744,1.044,0.73,1.831l-0.01,0.03h-1.421
		c0-0.467-0.112-0.814-0.337-1.043c-0.226-0.229-0.573-0.343-1.043-0.343c-0.438,0-0.778,0.176-1.023,0.527
		c-0.245,0.353-0.367,0.807-0.367,1.363V55.4c0,0.56,0.129,1.017,0.388,1.37c0.258,0.354,0.617,0.53,1.077,0.53
		c0.438,0,0.764-0.114,0.979-0.343s0.322-0.579,0.322-1.053H24.816z"/>
</g>
</svg>
