<?xml version="1.0" encoding="utf-8"?>
<!-- Generator: Adobe Illustrator 19.2.1, SVG Export Plug-In . SVG Version: 6.00 Build 0)  -->
<svg version="1.1" xmlns="http://www.w3.org/2000/svg" xmlns:xlink="http://www.w3.org/1999/xlink" x="0px" y="0px"
	 viewBox="0 0 864 720" style="enable-background:new 0 0 864 720;" xml:space="preserve">
<style type="text/css">
	.st0{fill:#F1F2F2;}
	.st1{fill:#364F81;stroke:#FFFFFF;stroke-width:2;stroke-miterlimit:10;}
	.st2{fill:#D1D3D4;stroke:#FFFFFF;stroke-width:2;stroke-miterlimit:10;}
	.st3{fill:#FFFFFF;}
	.st4{fill:none;stroke:#364F81;stroke-width:2;stroke-miterlimit:8;}
	.st5{fill:#364F81;}
	.st6{font-family:'SourceSansPro-Bold';}
	.st7{font-size:20px;}
</style>
<g id="Background">
	<path class="st0" d="M504,264c-53,0-96,43-96,96H216c0-159.1,128.9-288,288-288V264z"/>
	<path class="st0" d="M408,360c0,53,43,96,96,96v192c-159.1,0-288-128.9-288-288H408z"/>
	<path class="st0" d="M504,456v192c159.1,0,288-128.9,288-288S663.1,72,504,72v192c53,0,96,43,96,96S557,456,504,456z"/>
</g>
<g id="Layer_2_copy_3">
	<path class="st1" d="M504,522c-55.9-0.1-110.3-29.1-140.3-81l-33.7-3l-13,30c40,69.2,112.5,108,187.1,108l-24-30L504,522z"/>
</g>
<g id="Layer_2_copy_2">
	<path class="st1" d="M691.1,468C653.8,532.5,584,576,504,576l-24-30l24-24c60,0,112.3-32.6,140.3-81l9.7,33L691.1,468z"/>
</g>
<g id="Layer_2_copy">
	<path class="st1" d="M691.1,252c37.2,64.6,39.9,146.8,0,216l-37.1,6l-9.7-33c30-51.9,27.9-113.5,0-162l33.7,3L691.1,252z"/>
</g>
<g id="Layer_4">
	<path class="st1" d="M504,144c74.6,0.1,147.1,38.8,187.1,108L678,282l-33.7-3c-30-51.9-84.4-81-140.3-81l24-24L504,144z"/>
</g>
<g id="Layer_2">
	<path class="st1" d="M359.5,286.8c1.3-2.6,2.7-5.2,4.2-7.8l0,0c28-48.4,80.4-81,140.3-81l24-24l-24-30
		c-79.9,0-149.7,43.4-187.1,108l0,0c-1.8,3.1-3.5,6.2-5.1,9.3L348,258L359.5,286.8z"/>
</g>
<g id="Layer_12">
	<path class="st2" d="M359.5,286.8C334,337,337.2,394.9,363.7,441l-33.7-3l-13.1,30c-35.6-61.8-39.6-139.5-5-206.7L348,258
		L359.5,286.8z"/>
</g>
<g id="Layer_9">
	<path class="st1" d="M304.9,276.2c-26.9,63.6-21,134.6,12,191.8l13.1-30l33.7,3c-23.6-40.9-28.7-91.2-11.7-137.1l20,14.1l-24-60
		l-66,6L304.9,276.2z"/>
</g>
<g id="Layer_11">
	<path class="st1" d="M282,264l66-6l24,60l-20-14.1c-17,45.9-11.9,96.2,11.7,137.1l-33.7-3l-13.1,30c-33-57.2-38.9-128.2-12-191.8
		L282,264z M174,354c68.6,0,138.2-6.1,177.8-50.3L372,318l-24-60l-66,6l21.8,11.7C274.1,302.4,222.2,300,174,300h-18v54H174L174,354
		"/>
</g>
<g id="Layer_2_copy_4">
	<path class="st1" d="M174,420c55.9,0.1,112.9-3.9,142.9,48l13.1-30l33.7,3c-40-69.2-115.1-74.9-189.7-75v-18l-36,42l36,48L174,420z
		"/>
</g>
<g id="Labels">
	<g>
		<g>
			<path class="st3" d="M304.3,372c-2.4,0-4.3-1.9-4.3-4.3v-15.4c0-2.4,1.9-4.3,4.3-4.3h75.4c2.4,0,4.3,1.9,4.3,4.3v15.4
				c0,2.4-1.9,4.3-4.3,4.3H304.3z"/>
			<path class="st4" d="M304.3,372c-2.4,0-4.3-1.9-4.3-4.3v-15.4c0-2.4,1.9-4.3,4.3-4.3h75.4c2.4,0,4.3,1.9,4.3,4.3v15.4
				c0,2.4-1.9,4.3-4.3,4.3H304.3z"/>
		</g>
		<g>
			<path class="st3" d="M370.3,210c-2.4,0-4.3-1.9-4.3-4.3v-15.4c0-2.4,1.9-4.3,4.3-4.3h99.4c2.4,0,4.3,1.9,4.3,4.3v15.4
				c0,2.4-1.9,4.3-4.3,4.3H370.3z"/>
			<path class="st4" d="M370.3,210c-2.4,0-4.3-1.9-4.3-4.3v-15.4c0-2.4,1.9-4.3,4.3-4.3h99.4c2.4,0,4.3,1.9,4.3,4.3v15.4
				c0,2.4-1.9,4.3-4.3,4.3H370.3z"/>
		</g>
		<g>
			<path class="st3" d="M562.3,210c-2.4,0-4.3-1.9-4.3-4.3v-15.4c0-2.4,1.9-4.3,4.3-4.3h75.4c2.4,0,4.3,1.9,4.3,4.3v15.4
				c0,2.4-1.9,4.3-4.3,4.3H562.3z"/>
			<path class="st4" d="M562.3,210c-2.4,0-4.3-1.9-4.3-4.3v-15.4c0-2.4,1.9-4.3,4.3-4.3h75.4c2.4,0,4.3,1.9,4.3,4.3v15.4
				c0,2.4-1.9,4.3-4.3,4.3H562.3z"/>
		</g>
		<g>
			<path class="st3" d="M370.3,528c-2.4,0-4.3-1.9-4.3-4.3v-15.4c0-2.4,1.9-4.3,4.3-4.3h93.4c2.4,0,4.3,1.9,4.3,4.3v15.4
				c0,2.4-1.9,4.3-4.3,4.3H370.3z"/>
			<path class="st4" d="M370.3,528c-2.4,0-4.3-1.9-4.3-4.3v-15.4c0-2.4,1.9-4.3,4.3-4.3h93.4c2.4,0,4.3,1.9,4.3,4.3v15.4
				c0,2.4-1.9,4.3-4.3,4.3H370.3z"/>
		</g>
		<g>
			<path class="st3" d="M172.3,408c-2.4,0-4.3-1.9-4.3-4.3v-15.4c0-2.4,1.9-4.3,4.3-4.3h111.4c2.4,0,4.3,1.9,4.3,4.3v15.4
				c0,2.4-1.9,4.3-4.3,4.3H172.3z"/>
			<path class="st4" d="M172.3,408c-2.4,0-4.3-1.9-4.3-4.3v-15.4c0-2.4,1.9-4.3,4.3-4.3h111.4c2.4,0,4.3,1.9,4.3,4.3v15.4
				c0,2.4-1.9,4.3-4.3,4.3H172.3z"/>
		</g>
		<g>
			<path class="st3" d="M166.3,336c-2.4,0-4.3-1.9-4.3-4.3v-15.4c0-2.4,1.9-4.3,4.3-4.3h57.4c2.4,0,4.3,1.9,4.3,4.3v15.4
				c0,2.4-1.9,4.3-4.3,4.3H166.3z"/>
			<path class="st4" d="M166.3,336c-2.4,0-4.3-1.9-4.3-4.3v-15.4c0-2.4,1.9-4.3,4.3-4.3h57.4c2.4,0,4.3,1.9,4.3,4.3v15.4
				c0,2.4-1.9,4.3-4.3,4.3H166.3z"/>
		</g>
		<g>
			<path class="st3" d="M526.3,528c-2.4,0-4.3-1.9-4.3-4.3v-15.4c0-2.4,1.9-4.3,4.3-4.3h111.4c2.4,0,4.3,1.9,4.3,4.3v15.4
				c0,2.4-1.9,4.3-4.3,4.3H526.3z"/>
			<path class="st4" d="M526.3,528c-2.4,0-4.3-1.9-4.3-4.3v-15.4c0-2.4,1.9-4.3,4.3-4.3h111.4c2.4,0,4.3,1.9,4.3,4.3v15.4
				c0,2.4-1.9,4.3-4.3,4.3H526.3z"/>
		</g>
		<g>
			<path class="st3" d="M664.3,378c-2.4,0-4.3-1.9-4.3-4.3v-15.4c0-2.4,1.9-4.3,4.3-4.3h111.4c2.4,0,4.3,1.9,4.3,4.3v15.4
				c0,2.4-1.9,4.3-4.3,4.3H664.3z"/>
			<path class="st4" d="M664.3,378c-2.4,0-4.3-1.9-4.3-4.3v-15.4c0-2.4,1.9-4.3,4.3-4.3h111.4c2.4,0,4.3,1.9,4.3,4.3v15.4
				c0,2.4-1.9,4.3-4.3,4.3H664.3z"/>
		</g>
	</g>
	<g>
		<text transform="matrix(1 0 0 1 302.7202 366)" class="st5 st6 st7">ITERATE</text>
		<text transform="matrix(1 0 0 1 369.6704 204)" class="st5 st6 st7">RESEARCH</text>
		<text transform="matrix(1 0 0 1 562.5801 204)" class="st5 st6 st7">SKETCH</text>
		<text transform="matrix(1 0 0 1 369.5 522)" class="st5 st6 st7">EVALUATE</text>
		<text transform="matrix(1 0 0 1 171.7407 402)" class="st5 st6 st7">IMPLEMENT</text>
		<text transform="matrix(1 0 0 1 165.23 330)" class="st5 st6 st7">START</text>
		<text transform="matrix(1 0 0 1 525.4502 522)" class="st5 st6 st7">PROTOTYPE</text>
		<text transform="matrix(1 0 0 1 663.4907 372)" class="st5 st6 st7">WIREFRAME</text>
	</g>
</g>
</svg>
