<?xml version="1.0" encoding="utf-8"?>
<!-- Generator: Adobe Illustrator 16.0.4, SVG Export Plug-In . SVG Version: 6.00 Build 0)  -->
<!DOCTYPE svg PUBLIC "-//W3C//DTD SVG 1.1//EN" "http://www.w3.org/Graphics/SVG/1.1/DTD/svg11.dtd">
<svg version="1.1" id="Layer_1" xmlns="http://www.w3.org/2000/svg" xmlns:xlink="http://www.w3.org/1999/xlink" x="0px" y="0px"
	 width="300px" height="100px" viewBox="0 0 300 100" enable-background="new 0 0 300 100" xml:space="preserve">
<g>
	<rect x="214.507" y="27.054" fill="#FFFFFF" width="13.507" height="8.619"/>
	<path fill="#FFFFFF" d="M114.683,36.473h-1.866h-1.866c-7.33,0-12.528,2.442-12.528,12.172V69.08
		c0,7.375,6.264,10.085,12.528,10.085h1.866h1.866c6.131,0,12.217-2.177,12.217-9.285V46.111
		C126.899,38.648,121.479,36.473,114.683,36.473z M114.683,71.523c0,1.065-0.933,1.556-1.866,1.556s-1.866-0.489-1.866-1.556v-27.1
		c-0.044-1.154,0.889-1.732,1.866-1.732c0.933,0,1.866,0.578,1.866,1.732V71.523z"/>
	<path fill="#FFFFFF" d="M290.163,52.465v-6.531c0-8.75-5.952-8.574-12.884-8.574h-3.953c-7.285,0-12.84,0.312-12.84,8.574v6.531
		c0,7.508,2.443,8.618,7.908,8.618h4.931c1.422,0,3.954,0.89,3.954,2.354v7.33c0,2.441-3.997,2.441-3.997,0l0.043-7.908h-12.841
		v8.662c0,7.509,7.865,7.197,12.752,7.197h3.953c7.285,0,12.973-0.844,12.973-8.263v-9.374c0-4.266-1.821-6.664-6.842-6.664h-6.043
		c-1.465,0-3.953-0.977-3.953-2.443v-6.041c0-3.377,3.953-3.998,3.953,0v6.53L290.163,52.465L290.163,52.465z"/>
	<path fill="#FFFFFF" d="M246.137,36.473h-3.73c-7.33,0-12.483,2.442-12.483,12.172V69.08c0,7.375,6.265,10.085,12.483,10.085h3.73
		c6.176,0,12.219-2.177,12.219-9.285v-9.595h-12.219v11.238c0,2.088-4.176,2.088-4.176,0V44.425c-0.089-2.311,4.176-2.311,4.176,0
		v10.083h12.219v-8.396C258.354,38.648,252.934,36.473,246.137,36.473z"/>
	<path fill="#FFFFFF" d="M176.79,36.473h-1.866h-1.865c-7.33,0-12.482,2.442-12.482,12.172V69.08
		c0,7.375,6.263,10.085,12.482,10.085h1.865h1.866c6.176,0,12.217-2.177,12.217-9.285V46.111
		C189.006,38.648,183.587,36.473,176.79,36.473z M176.79,71.523c0,1.065-0.933,1.556-1.866,1.556c-0.931,0-1.865-0.489-1.865-1.556
		v-27.1c-0.043-1.154,0.935-1.732,1.865-1.732c0.934,0,1.866,0.578,1.866,1.732V71.523z"/>
	<rect x="214.507" y="37.583" fill="#FFFFFF" width="13.507" height="40.205"/>
	<path fill="#FFFFFF" d="M209.842,70.458c-1.066,0-2.221-1.244-2.221-2.312V46.023h5.643v-8.041h-5.643V27.143H195.27v10.839h-5.197
		v7.953h5.197v24.699c0,4.397,2.399,7.375,7.153,7.375h11.017l-0.088-7.553L209.842,70.458L209.842,70.458z"/>
	<path fill="#FFFFFF" d="M149.379,36.473h-0.977c-1.289,0-3.377,0.443-5.154,1.198c-0.888,0.354-1.688,0.8-2.354,1.289V21.501
		h-12.439v57.665h12.439v-2.621c0.622,0.532,1.421,0.979,2.354,1.376c1.732,0.755,3.865,1.245,5.642,1.245h0.756
		c4.975,0,8.84-3.865,8.84-8.574V45.936C158.486,40.604,155.464,36.473,149.379,36.473z M145.559,69.879
		c0,1.421-1.155,2.178-2.31,2.178c-1.199,0-2.354-0.757-2.354-2.178V45.934c0-1.73,1.154-2.621,2.354-2.621
		c1.155,0,2.31,0.891,2.31,2.621V69.879z"/>
	<g>
		<path fill="#FFFFFF" d="M37.604,68.591V58.15h10.884V70.59c0,3.422,5.73,3.422,5.73,0V58.062c0-1.556-3.376-3.153-4.708-3.599
			l-4.265-1.422c-3.42-1.155-7.508-2.044-7.597-11.104l-0.044-8.976c-0.128-11.872,3.094-12.125,11.02-12.128H22.945v48.913
			c0,1.332-1.999,1.332-1.999,0V20.834H6.107V67.48c0,8.219,7.33,11.686,14.838,11.686h27.974
			C45.772,79.152,37.604,78.711,37.604,68.591z M33.118,69.748c0,4.087-6.086,6.841-10.173,6.841h-2
			c-4.22,0-10.75-2.575-10.75-6.841V25.365h6.575v44.381c0,2.133,2.088,4.797,4.176,4.797h2c2.088,0,4.131-2.709,4.131-4.797V25.365
			h6.042L33.118,69.748L33.118,69.748z"/>
		<path fill="#FFFFFF" d="M92.47,52.465c1.91,0,3.643-4.042,3.643-6.529V28.964c0-4.798-4.887-8.13-10.484-8.13h-4.887H53.198
			c6.531,0,11.951,0,11.951,12.128v9.149l-10.884,0.046v-11.15c0-5.464-5.687-5.242-5.687-0.222v9.507
			c0,2.978,4.62,5.108,5.953,5.642l3.909,1.557c4.532,1.865,6.931,4.619,6.931,13.595v6.886c0,10.307-5.287,11.195-12.173,11.195
			h25.723v-26.7l1.821,8.574l3.909,18.126H97.89L92.47,52.465z M82.607,44.158c0,1.421-0.844,2.088-1.866,2.354
			c-0.577,0.178-1.199,0.223-1.776,0.178L78.92,27.986c0.666,0.045,1.288,0.045,1.821,0.089c1.156,0.133,1.866,0.623,1.866,2.488
			V44.158z"/>
	</g>
</g>
</svg>
