<?xml version="1.0" encoding="utf-8"?>
<!-- Generator: Adobe Illustrator 16.0.4, SVG Export Plug-In . SVG Version: 6.00 Build 0)  -->
<!DOCTYPE svg PUBLIC "-//W3C//DTD SVG 1.1//EN" "http://www.w3.org/Graphics/SVG/1.1/DTD/svg11.dtd">
<svg version="1.1" id="Layer_1" xmlns="http://www.w3.org/2000/svg" xmlns:xlink="http://www.w3.org/1999/xlink" x="0px" y="0px"
	 width="300px" height="100px" viewBox="0 0 300 100" enable-background="new 0 0 300 100" xml:space="preserve">
<path fill="#FFFFFF" d="M87.095,42.626H73.812V64.8h-6.276V42.626H55.141v-4.812h24.313c-5.297-13.359-18.335-22.806-33.58-22.806
	c-13.303,0-24.923,7.194-31.189,17.902C20.299,19.118,33.832,9.395,49.64,9.395c3.56,0,7.002,0.492,10.267,1.414
	c-4.82-1.917-10.076-2.973-15.58-2.973C21.042,7.836,2.165,26.714,2.165,50s18.876,42.164,42.163,42.164
	c20.422,0,37.451-14.521,41.333-33.797c1.107-3.553,1.704-7.328,1.704-11.247C87.364,45.6,87.27,44.102,87.095,42.626z
	 M21.91,37.814h6.277v21.915h17.885V37.814h6.276v20.607c0,2.511-0.472,4.201-1.413,5.072c-0.941,0.873-2.702,1.307-5.282,1.307
	H28.605c-2.581,0-4.341-0.434-5.283-1.307c-0.942-0.871-1.413-2.562-1.413-5.072L21.91,37.814L21.91,37.814z"/>
<path fill="#FFFFFF" d="M108.837,51.895H95.331V47.25h14.189v2.469l4.436-1.046v-0.461c0-1.812-0.398-3.053-1.193-3.725
	c-0.795-0.669-2.184-1.004-4.165-1.004H96.334c-2.065,0-3.475,0.35-4.229,1.046c-0.753,0.697-1.13,2.053-1.13,4.061v2.385
	c0,2.008,0.376,3.364,1.13,4.062c0.753,0.698,2.163,1.047,4.229,1.047h13.477v4.938H94.535v-2.556l-4.437,0.923v0.584
	c0,2.01,0.384,3.362,1.152,4.062c0.767,0.694,2.183,1.045,4.249,1.045h13.351c2.065,0,3.48-0.351,4.248-1.045
	c0.768-0.699,1.152-2.054,1.152-4.062V57c0-2.008-0.384-3.363-1.154-4.061C112.326,52.245,110.906,51.895,108.837,51.895z"/>
<polygon fill="#FFFFFF" points="139.653,43.482 114.75,43.482 114.75,47.334 124.669,47.334 124.669,65.079 129.691,65.079 
	129.691,47.334 139.653,47.334 "/>
<path fill="#FFFFFF" d="M148.861,43.482l-4.746,8.387c4.94-0.764,6.382-2.247,7.132-7.267c0.758,5.078,2.218,6.541,7.294,7.294
	c-5.076,0.76-6.535,2.215-7.295,7.295c-0.748-5.03-2.196-6.51-7.159-7.272l-7.448,13.16h5.022l2.512-4.729h13.685l2.599,4.729h5.647
	l-12.389-21.597H148.861z"/>
<path fill="#FFFFFF" d="M186.527,56.917c3.238,0,4.856-1.396,4.856-4.185v-5.063c0-2.791-1.618-4.187-4.856-4.187h-18.498v21.597
	h4.938v-8.162h4.771l8.705,8.162h7.199l-9.961-8.162H186.527z M172.968,53.234v-6.067h11.3c0.783,0,1.326,0.084,1.633,0.253
	c0.418,0.253,0.627,0.745,0.627,1.475v2.613c0,0.73-0.209,1.223-0.627,1.475c-0.308,0.168-0.851,0.254-1.633,0.254L172.968,53.234
	L172.968,53.234z"/>
<path fill="#FFFFFF" d="M214.361,43.482h-12.891c-2.064,0-3.476,0.35-4.229,1.046c-0.756,0.698-1.131,2.052-1.131,4.061v11.384
	c0,2.008,0.375,3.362,1.131,4.062c0.753,0.695,2.162,1.045,4.229,1.045h12.891c2.063,0,3.475-0.35,4.229-1.045
	c0.753-0.699,1.131-2.053,1.131-4.062v-2.554l-5.022-1.046v4.646h-13.562V47.334h13.562v4.102l5.022-0.797v-2.05
	c0-2.008-0.377-3.362-1.131-4.061C217.836,43.832,216.427,43.482,214.361,43.482z"/>
<path fill="#FFFFFF" d="M245.878,43.482h-15.905c-2.064,0-3.474,0.35-4.228,1.046c-0.753,0.698-1.13,2.052-1.13,4.061v11.384
	c0,2.008,0.376,3.362,1.13,4.062c0.754,0.695,2.162,1.045,4.228,1.045h15.905c2.063,0,3.472-0.35,4.226-1.045
	c0.754-0.699,1.131-2.053,1.131-4.062V48.589c0-2.008-0.377-3.362-1.131-4.061C249.352,43.832,247.941,43.482,245.878,43.482z
	 M246.213,61.02h-16.574V47.334h16.574V61.02z"/>
<path fill="#FFFFFF" d="M280.951,43.482l-9.963,13.058l-10.17-13.058h-4.062v21.597h4.062V51.727c0-0.668-0.041-1.437-0.127-2.301
	c0.278,0.697,0.713,1.438,1.299,2.217l8.119,10.842h1.006l8.119-10.799c0.308-0.418,0.726-1.172,1.256-2.26
	c-0.111,1.006-0.166,1.771-0.166,2.301V65.08h4.645V43.482H280.951z"/>
<path fill="#FFFFFF" d="M143.952,51.896c0.048,0.008,0.088,0.016,0.135,0.021l0.028-0.05
	C144.058,51.878,144.009,51.889,143.952,51.896z"/>
</svg>
