<?xml version="1.0" encoding="utf-8"?>
<!-- Generator: Adobe Illustrator 16.0.4, SVG Export Plug-In . SVG Version: 6.00 Build 0)  -->
<!DOCTYPE svg PUBLIC "-//W3C//DTD SVG 1.1//EN" "http://www.w3.org/Graphics/SVG/1.1/DTD/svg11.dtd">
<svg version="1.1" id="Layer_1" xmlns="http://www.w3.org/2000/svg" xmlns:xlink="http://www.w3.org/1999/xlink" x="0px" y="0px"
	 width="36px" height="36px" viewBox="0.5 36.5 36 36" enable-background="new 0.5 36.5 36 36" xml:space="preserve">
<g id="Layer_1_1_">
	<circle fill="#FF8000" cx="18.5" cy="54.5" r="18"/>
</g>
<g id="Layer_2">
	<path fill="none" stroke="#FF8000" stroke-width="0.5143" stroke-miterlimit="10" d="M9.012,53.012
		c0.906-0.904,7.098-7.094,8.006-8.003c1.481-1.485,1.488-1.475,2.96,0c0.908,0.91,7.078,7.048,8,7.972
		c1.49,1.492,1.5,1.519-0.002,3.021c-0.912,0.915-6.985,6.99-7.94,7.946c-1.536,1.538-1.539,1.538-3.072,0.003
		c-0.952-0.952-7.049-7.08-7.952-7.983C7.513,54.466,7.544,54.48,9.012,53.012z"/>
	<g>
		<polygon fill="#FF8000" points="11.919,55.816 11.919,53.184 17.185,53.184 17.185,47.914 19.814,47.914 19.814,53.184 
			25.081,53.184 25.081,55.816 19.814,55.816 19.814,61.086 17.185,61.086 17.185,55.816 		"/>
	</g>
	<g>
		<path fill="#FFFFFF" d="M18.684,66.427c-0.102,0.101-0.265,0.101-0.366,0L6.574,54.684c-0.101-0.102-0.101-0.266,0-0.367
			l11.743-11.742c0.102-0.102,0.265-0.102,0.367,0l11.741,11.742c0.101,0.103,0.101,0.267,0,0.367L18.684,66.427z"/>
		<path fill="#F47F20" d="M29.807,54.327L18.674,43.193c-0.097-0.096-0.252-0.096-0.348,0L7.194,54.327
			c-0.096,0.095-0.096,0.251,0,0.347l11.132,11.133c0.096,0.096,0.251,0.096,0.348,0l11.131-11.133
			C29.9,54.578,29.9,54.422,29.807,54.327z M29.434,54.667L18.668,65.436c-0.093,0.092-0.243,0.092-0.335,0L7.566,54.667
			c-0.093-0.092-0.093-0.242,0-0.335l10.767-10.766c0.092-0.094,0.242-0.094,0.335,0l10.766,10.767
			C29.525,54.425,29.525,54.575,29.434,54.667z"/>
		<circle fill="#F47F20" cx="18.5" cy="64.666" r="0.143"/>
		<circle fill="#F47F20" cx="18.5" cy="44.257" r="0.143"/>
		<path fill="#F47F20" d="M18.948,53.229c5.841-3.515,0.844-4.856-4.101-5.367l-0.872,0.873c8.444,0.988,3.016,3.472,3.016,3.472
			c-7.468,3.798-1.83,7.125,4.602,9.321l3.341-3.34C19.075,57.58,13.96,56.23,18.948,53.229z"/>
	</g>
</g>
</svg>
